<svg xmlns="http://www.w3.org/2000/svg" xmlns:xlink="http://www.w3.org/1999/xlink" width="100" zoomAndPan="magnify" viewBox="0 0 75 74.999997" height="100" preserveAspectRatio="xMidYMid meet" version="1.0"><path fill="#0062ff" d="M 37.671875 53.589844 C 38.445312 53.589844 39.15625 53.285156 39.691406 52.738281 L 52.390625 39.828125 C 54.191406 37.996094 55.183594 35.554688 55.183594 32.964844 C 55.183594 30.375 54.191406 27.933594 52.390625 26.089844 C 50.582031 24.257812 48.167969 23.242188 45.609375 23.242188 C 43.054688 23.242188 40.636719 24.257812 38.828125 26.089844 L 37.671875 27.269531 L 36.527344 26.089844 C 34.71875 24.257812 32.316406 23.242188 29.757812 23.242188 L 29.722656 23.242188 C 27.167969 23.242188 24.773438 24.257812 22.964844 26.089844 C 19.242188 29.882812 19.242188 36.046875 22.964844 39.828125 L 35.652344 52.738281 C 36.191406 53.285156 36.914062 53.589844 37.671875 53.589844 Z M 37.671875 53.589844 " fill-opacity="1" fill-rule="nonzero"/><path fill="#0062ff" d="M 69.191406 2.230469 L 64.519531 2.230469 C 62.675781 2.230469 61.171875 3.664062 61.042969 5.476562 L 46.496094 2.570312 C 45.367188 2.347656 44.210938 2.230469 43.054688 2.230469 L 39.925781 2.230469 C 37.5 2.230469 35.128906 2.71875 32.910156 3.699219 L 19.300781 9.652344 C 17.699219 10.355469 16.664062 11.929688 16.664062 13.679688 C 16.664062 15.164062 17.398438 16.539062 18.636719 17.347656 C 19.871094 18.164062 21.425781 18.304688 22.777344 17.71875 L 30.667969 14.335938 L 30.667969 14.488281 C 30.667969 16.738281 32.5 18.570312 34.753906 18.570312 L 43.195312 18.570312 L 48.0625 21.351562 C 50.222656 22.585938 52.683594 23.242188 55.183594 23.242188 C 57.433594 23.242188 59.652344 22.796875 61.054688 22.4375 C 61.238281 24.199219 62.710938 25.574219 64.519531 25.574219 L 69.1875 25.574219 C 71.117188 25.574219 72.691406 24 72.691406 22.074219 L 72.691406 5.730469 C 72.691406 3.804688 71.117188 2.230469 69.1875 2.230469 Z M 61.019531 20.03125 C 59.828125 20.359375 57.480469 20.90625 55.183594 20.90625 C 53.09375 20.90625 51.039062 20.359375 49.21875 19.320312 L 44.09375 16.390625 C 43.90625 16.296875 43.707031 16.238281 43.507812 16.238281 L 34.753906 16.238281 C 33.785156 16.238281 33.003906 15.457031 33.003906 14.484375 C 33.003906 13.820312 33.378906 13.238281 33.9375 12.933594 L 34.207031 12.828125 C 34.382812 12.769531 34.554688 12.734375 34.753906 12.734375 L 45.84375 12.734375 C 46.484375 12.734375 47.011719 12.210938 47.011719 11.566406 C 47.011719 10.925781 46.484375 10.402344 45.84375 10.402344 L 34.753906 10.402344 C 34.40625 10.402344 34.054688 10.449219 33.726562 10.527344 L 33.726562 10.496094 L 33.355469 10.644531 C 33.214844 10.691406 33.085938 10.75 32.945312 10.820312 L 21.867188 15.570312 C 21.214844 15.851562 20.515625 15.78125 19.917969 15.398438 C 19.335938 15.011719 18.996094 14.382812 18.996094 13.679688 C 18.996094 12.863281 19.488281 12.117188 20.234375 11.789062 L 33.84375 5.835938 C 35.769531 4.996094 37.8125 4.566406 39.925781 4.566406 L 43.054688 4.566406 C 44.058594 4.566406 45.050781 4.65625 46.03125 4.855469 L 61.019531 7.855469 Z M 61.019531 20.03125 " fill-opacity="1" fill-rule="nonzero"/><path fill="#0062ff" d="M 56.710938 57.152344 C 55.472656 56.332031 53.921875 56.195312 52.566406 56.777344 L 44.675781 60.160156 L 44.675781 60.011719 C 44.675781 57.757812 42.84375 55.925781 40.589844 55.925781 L 32.152344 55.925781 L 27.285156 53.148438 C 25.125 51.910156 22.660156 51.253906 20.164062 51.253906 C 17.910156 51.253906 15.691406 51.699219 14.292969 52.0625 C 14.105469 50.296875 12.636719 48.921875 10.824219 48.921875 L 6.15625 48.921875 C 4.230469 48.921875 2.65625 50.496094 2.65625 52.421875 L 2.65625 68.765625 C 2.65625 70.691406 4.230469 72.265625 6.15625 72.265625 L 10.824219 72.265625 C 12.671875 72.265625 14.175781 70.832031 14.304688 69.023438 L 28.847656 71.929688 C 29.980469 72.148438 31.136719 72.265625 32.292969 72.265625 L 35.421875 72.265625 C 37.847656 72.265625 40.21875 71.777344 42.4375 70.796875 L 56.058594 64.84375 C 57.65625 64.140625 58.683594 62.566406 58.683594 60.816406 C 58.683594 59.332031 57.949219 57.96875 56.710938 57.152344 Z M 55.113281 62.707031 L 41.5 68.660156 C 39.574219 69.5 37.53125 69.933594 35.417969 69.933594 L 32.292969 69.933594 C 31.289062 69.933594 30.296875 69.839844 29.316406 69.640625 L 14.328125 66.640625 L 14.328125 54.464844 C 15.519531 54.140625 17.863281 53.589844 20.164062 53.589844 C 22.253906 53.589844 24.308594 54.140625 26.128906 55.179688 L 31.253906 58.109375 C 31.441406 58.199219 31.636719 58.257812 31.835938 58.257812 L 40.589844 58.257812 C 41.558594 58.257812 42.34375 59.042969 42.34375 60.011719 C 42.34375 60.675781 41.96875 61.257812 41.410156 61.5625 L 41.140625 61.667969 C 40.964844 61.726562 40.789062 61.761719 40.589844 61.761719 L 29.503906 61.761719 C 28.859375 61.761719 28.335938 62.285156 28.335938 62.929688 C 28.335938 63.570312 28.859375 64.097656 29.503906 64.097656 L 40.589844 64.097656 C 40.941406 64.097656 41.292969 64.050781 41.617188 63.96875 L 41.617188 64.003906 L 41.992188 63.851562 C 42.132812 63.804688 42.261719 63.746094 42.402344 63.675781 L 53.476562 58.925781 C 54.132812 58.644531 54.832031 58.714844 55.425781 59.101562 C 56.011719 59.484375 56.351562 60.117188 56.351562 60.816406 C 56.351562 61.632812 55.859375 62.378906 55.113281 62.707031 Z M 55.113281 62.707031 " fill-opacity="1" fill-rule="nonzero"/></svg>