<svg xmlns="http://www.w3.org/2000/svg" xmlns:xlink="http://www.w3.org/1999/xlink" width="300" zoomAndPan="magnify" viewBox="0 0 224.87999 30.000001" height="40" preserveAspectRatio="xMidYMid meet" version="1.0"><defs><g/><clipPath id="2b4ef6a7be"><path d="M 33 0 L 221.195312 0 L 221.195312 21 L 33 21 Z M 33 0 " clip-rule="nonzero"/></clipPath><clipPath id="8a32751e26"><rect x="0" width="189" y="0" height="21"/></clipPath><clipPath id="9c64fc6140"><path d="M 0.386719 1 L 3 1 L 3 5 L 0.386719 5 Z M 0.386719 1 " clip-rule="nonzero"/></clipPath><clipPath id="a8668d19fb"><path d="M 12 0.742188 L 14 0.742188 L 14 5 L 12 5 Z M 12 0.742188 " clip-rule="nonzero"/></clipPath><clipPath id="27fb1ec8ec"><path d="M 34 0.742188 L 37 0.742188 L 37 5 L 34 5 Z M 34 0.742188 " clip-rule="nonzero"/></clipPath><clipPath id="6c170dde8f"><path d="M 47 0.742188 L 49 0.742188 L 49 5 L 47 5 Z M 47 0.742188 " clip-rule="nonzero"/></clipPath><clipPath id="035228bf55"><path d="M 50 0.742188 L 54 0.742188 L 54 5 L 50 5 Z M 50 0.742188 " clip-rule="nonzero"/></clipPath><clipPath id="ef9e023053"><rect x="0" width="75" y="0" height="7"/></clipPath></defs><path fill="#0062ff" d="M 18.152344 20.746094 C 18.449219 20.746094 18.726562 20.625 18.933594 20.414062 L 23.847656 15.417969 C 24.546875 14.707031 24.929688 13.761719 24.929688 12.761719 C 24.929688 11.757812 24.546875 10.8125 23.847656 10.097656 C 23.148438 9.390625 22.214844 8.996094 21.222656 8.996094 C 20.234375 8.996094 19.300781 9.390625 18.597656 10.097656 L 18.152344 10.554688 L 17.707031 10.097656 C 17.007812 9.390625 16.078125 8.996094 15.089844 8.996094 L 15.074219 8.996094 C 14.085938 8.996094 13.160156 9.390625 12.457031 10.097656 C 11.019531 11.566406 11.019531 13.953125 12.457031 15.417969 L 17.371094 20.414062 C 17.578125 20.625 17.859375 20.746094 18.152344 20.746094 Z M 18.152344 20.746094 " fill-opacity="1" fill-rule="nonzero"/><path fill="#0062ff" d="M 30.351562 0.863281 L 28.542969 0.863281 C 27.832031 0.863281 27.25 1.417969 27.199219 2.121094 L 21.566406 0.996094 C 21.128906 0.910156 20.683594 0.863281 20.234375 0.863281 L 19.023438 0.863281 C 18.085938 0.863281 17.167969 1.050781 16.308594 1.433594 L 11.039062 3.738281 C 10.421875 4.007812 10.019531 4.617188 10.019531 5.296875 C 10.019531 5.871094 10.304688 6.402344 10.785156 6.714844 C 11.261719 7.03125 11.863281 7.085938 12.386719 6.859375 L 15.441406 5.550781 L 15.441406 5.609375 C 15.441406 6.480469 16.148438 7.1875 17.023438 7.1875 L 20.289062 7.1875 L 22.175781 8.265625 C 23.011719 8.742188 23.960938 8.996094 24.929688 8.996094 C 25.800781 8.996094 26.660156 8.824219 27.203125 8.683594 C 27.273438 9.367188 27.84375 9.898438 28.542969 9.898438 L 30.351562 9.898438 C 31.097656 9.898438 31.707031 9.289062 31.707031 8.542969 L 31.707031 2.21875 C 31.707031 1.472656 31.097656 0.863281 30.351562 0.863281 Z M 27.191406 7.753906 C 26.726562 7.882812 25.820312 8.09375 24.929688 8.09375 C 24.121094 8.09375 23.324219 7.882812 22.621094 7.480469 L 20.636719 6.34375 C 20.566406 6.308594 20.488281 6.285156 20.410156 6.285156 L 17.023438 6.285156 C 16.648438 6.285156 16.34375 5.984375 16.34375 5.605469 C 16.34375 5.351562 16.488281 5.125 16.707031 5.007812 L 16.808594 4.964844 C 16.878906 4.941406 16.945312 4.929688 17.023438 4.929688 L 21.316406 4.929688 C 21.5625 4.929688 21.765625 4.726562 21.765625 4.476562 C 21.765625 4.230469 21.5625 4.027344 21.316406 4.027344 L 17.023438 4.027344 C 16.886719 4.027344 16.75 4.042969 16.625 4.074219 L 16.625 4.0625 L 16.480469 4.121094 C 16.425781 4.136719 16.375 4.160156 16.320312 4.1875 L 12.035156 6.027344 C 11.78125 6.136719 11.511719 6.109375 11.277344 5.960938 C 11.054688 5.8125 10.921875 5.566406 10.921875 5.296875 C 10.921875 4.980469 11.113281 4.691406 11.402344 4.5625 L 16.667969 2.257812 C 17.414062 1.933594 18.207031 1.769531 19.023438 1.769531 L 20.234375 1.769531 C 20.625 1.769531 21.007812 1.800781 21.386719 1.878906 L 27.191406 3.039062 Z M 27.191406 7.753906 " fill-opacity="1" fill-rule="nonzero"/><path fill="#0062ff" d="M 25.523438 22.125 C 25.042969 21.804688 24.441406 21.753906 23.917969 21.976562 L 20.863281 23.289062 L 20.863281 23.230469 C 20.863281 22.359375 20.152344 21.648438 19.28125 21.648438 L 16.015625 21.648438 L 14.132812 20.574219 C 13.292969 20.09375 12.339844 19.839844 11.375 19.839844 C 10.503906 19.839844 9.644531 20.011719 9.101562 20.152344 C 9.027344 19.46875 8.460938 18.9375 7.757812 18.9375 L 5.953125 18.9375 C 5.207031 18.9375 4.597656 19.546875 4.597656 20.292969 L 4.597656 26.617188 C 4.597656 27.363281 5.207031 27.972656 5.953125 27.972656 L 7.757812 27.972656 C 8.472656 27.972656 9.054688 27.417969 9.105469 26.71875 L 14.734375 27.84375 C 15.175781 27.929688 15.621094 27.972656 16.070312 27.972656 L 17.28125 27.972656 C 18.21875 27.972656 19.136719 27.785156 19.996094 27.40625 L 25.269531 25.101562 C 25.886719 24.828125 26.285156 24.21875 26.285156 23.542969 C 26.285156 22.96875 26 22.441406 25.523438 22.125 Z M 24.902344 24.273438 L 19.632812 26.578125 C 18.886719 26.902344 18.097656 27.070312 17.277344 27.070312 L 16.070312 27.070312 C 15.679688 27.070312 15.296875 27.035156 14.917969 26.957031 L 9.117188 25.796875 L 9.117188 21.082031 C 9.578125 20.957031 10.484375 20.746094 11.375 20.746094 C 12.183594 20.746094 12.980469 20.957031 13.683594 21.359375 L 15.667969 22.492188 C 15.738281 22.527344 15.816406 22.550781 15.894531 22.550781 L 19.28125 22.550781 C 19.65625 22.550781 19.960938 22.855469 19.960938 23.230469 C 19.960938 23.488281 19.816406 23.710938 19.597656 23.832031 L 19.496094 23.871094 C 19.425781 23.894531 19.359375 23.90625 19.28125 23.90625 L 14.988281 23.90625 C 14.742188 23.90625 14.539062 24.109375 14.539062 24.359375 C 14.539062 24.609375 14.742188 24.8125 14.988281 24.8125 L 19.28125 24.8125 C 19.417969 24.8125 19.554688 24.792969 19.679688 24.761719 L 19.679688 24.777344 L 19.824219 24.714844 C 19.878906 24.699219 19.929688 24.675781 19.984375 24.648438 L 24.269531 22.808594 C 24.523438 22.699219 24.792969 22.726562 25.023438 22.878906 C 25.25 23.027344 25.382812 23.269531 25.382812 23.542969 C 25.382812 23.859375 25.191406 24.148438 24.902344 24.273438 Z M 24.902344 24.273438 " fill-opacity="1" fill-rule="nonzero"/><g clip-path="url(#2b4ef6a7be)"><g transform="matrix(1, 0, 0, 1, 33, 0.00000000000000569)"><g clip-path="url(#8a32751e26)"><g fill="#0062ff" fill-opacity="1"><g transform="translate(1.859033, 14.807686)"><g><path d="M 6.84375 -12.6875 C 6.5 -12.664062 6.242188 -12.597656 6.078125 -12.484375 C 5.921875 -12.378906 5.84375 -12.207031 5.84375 -11.96875 C 5.84375 -11.820312 5.859375 -11.691406 5.890625 -11.578125 C 5.921875 -11.460938 5.957031 -11.351562 6 -11.25 C 6.039062 -11.144531 6.070312 -11.054688 6.09375 -10.984375 L 8.109375 -5.3125 L 8.140625 -5.3125 L 9.890625 -10.1875 L 9.703125 -10.8125 C 9.546875 -11.332031 9.410156 -11.710938 9.296875 -11.953125 C 9.179688 -12.191406 9.019531 -12.367188 8.8125 -12.484375 C 8.613281 -12.609375 8.3125 -12.675781 7.90625 -12.6875 L 7.90625 -13.109375 L 14.328125 -13.109375 L 14.328125 -12.6875 C 13.960938 -12.6875 13.691406 -12.648438 13.515625 -12.578125 C 13.335938 -12.503906 13.25 -12.359375 13.25 -12.140625 C 13.25 -12.023438 13.304688 -11.796875 13.421875 -11.453125 L 15.4375 -5.390625 L 15.46875 -5.390625 L 17.515625 -10.78125 L 17.703125 -11.21875 C 17.773438 -11.40625 17.832031 -11.570312 17.875 -11.71875 C 17.914062 -11.863281 17.9375 -11.988281 17.9375 -12.09375 C 17.9375 -12.46875 17.585938 -12.664062 16.890625 -12.6875 L 16.890625 -13.109375 L 20.171875 -13.109375 L 20.171875 -12.6875 C 19.847656 -12.675781 19.597656 -12.625 19.421875 -12.53125 C 19.242188 -12.4375 19.113281 -12.3125 19.03125 -12.15625 C 18.945312 -12.007812 18.847656 -11.789062 18.734375 -11.5 L 14.328125 0.1875 L 13.328125 0.1875 L 10.375 -8.78125 L 10.328125 -8.78125 L 7.09375 0.1875 L 6.140625 0.1875 L 2.390625 -10.40625 C 2.140625 -11.144531 1.941406 -11.648438 1.796875 -11.921875 C 1.660156 -12.203125 1.484375 -12.398438 1.265625 -12.515625 C 1.046875 -12.628906 0.703125 -12.6875 0.234375 -12.6875 L 0.234375 -13.109375 L 6.84375 -13.109375 Z M 6.84375 -12.6875 "/></g></g></g><g fill="#0062ff" fill-opacity="1"><g transform="translate(21.176373, 14.807686)"><g><path d="M 4.625 -9.21875 C 5.820312 -9.21875 6.710938 -9.019531 7.296875 -8.625 C 7.890625 -8.226562 8.1875 -7.695312 8.1875 -7.03125 L 8.1875 -1.84375 C 8.1875 -1.476562 8.210938 -1.242188 8.265625 -1.140625 C 8.328125 -1.035156 8.414062 -0.984375 8.53125 -0.984375 C 8.707031 -0.984375 8.878906 -1.113281 9.046875 -1.375 L 9.359375 -1.171875 C 9.140625 -0.742188 8.828125 -0.410156 8.421875 -0.171875 C 8.023438 0.0664062 7.578125 0.1875 7.078125 0.1875 C 6.566406 0.1875 6.132812 0.078125 5.78125 -0.140625 C 5.425781 -0.367188 5.207031 -0.710938 5.125 -1.171875 C 4.507812 -0.660156 3.992188 -0.304688 3.578125 -0.109375 C 3.171875 0.0859375 2.738281 0.1875 2.28125 0.1875 C 1.695312 0.1875 1.21875 0.00390625 0.84375 -0.359375 C 0.46875 -0.722656 0.28125 -1.175781 0.28125 -1.71875 C 0.28125 -2.519531 0.6875 -3.222656 1.5 -3.828125 C 2.320312 -4.429688 3.53125 -4.960938 5.125 -5.421875 L 5.125 -7.125 C 5.125 -7.644531 5.03125 -7.992188 4.84375 -8.171875 C 4.65625 -8.359375 4.390625 -8.453125 4.046875 -8.453125 C 3.734375 -8.453125 3.46875 -8.378906 3.25 -8.234375 C 3.039062 -8.085938 2.9375 -7.914062 2.9375 -7.71875 C 2.9375 -7.632812 2.953125 -7.5625 2.984375 -7.5 C 3.023438 -7.445312 3.082031 -7.390625 3.15625 -7.328125 C 3.257812 -7.222656 3.335938 -7.117188 3.390625 -7.015625 C 3.453125 -6.910156 3.484375 -6.765625 3.484375 -6.578125 C 3.484375 -6.234375 3.335938 -5.929688 3.046875 -5.671875 C 2.753906 -5.421875 2.410156 -5.296875 2.015625 -5.296875 C 1.585938 -5.296875 1.21875 -5.441406 0.90625 -5.734375 C 0.601562 -6.035156 0.453125 -6.394531 0.453125 -6.8125 C 0.453125 -7.238281 0.640625 -7.632812 1.015625 -8 C 1.390625 -8.375 1.894531 -8.671875 2.53125 -8.890625 C 3.164062 -9.109375 3.863281 -9.21875 4.625 -9.21875 Z M 3.375 -2.4375 C 3.375 -2.15625 3.445312 -1.921875 3.59375 -1.734375 C 3.738281 -1.546875 3.925781 -1.453125 4.15625 -1.453125 C 4.46875 -1.453125 4.789062 -1.617188 5.125 -1.953125 L 5.125 -4.640625 C 4.613281 -4.398438 4.191406 -4.097656 3.859375 -3.734375 C 3.535156 -3.367188 3.375 -2.9375 3.375 -2.4375 Z M 3.375 -2.4375 "/></g></g></g><g fill="#0062ff" fill-opacity="1"><g transform="translate(30.567121, 14.807686)"><g><path d="M 2.8125 -13.6875 C 3.300781 -13.6875 3.710938 -13.519531 4.046875 -13.1875 C 4.378906 -12.851562 4.546875 -12.445312 4.546875 -11.96875 C 4.546875 -11.488281 4.378906 -11.078125 4.046875 -10.734375 C 3.710938 -10.398438 3.300781 -10.234375 2.8125 -10.234375 C 2.34375 -10.234375 1.9375 -10.398438 1.59375 -10.734375 C 1.257812 -11.078125 1.09375 -11.488281 1.09375 -11.96875 C 1.09375 -12.445312 1.257812 -12.851562 1.59375 -13.1875 C 1.9375 -13.519531 2.34375 -13.6875 2.8125 -13.6875 Z M 4.453125 -1.6875 C 4.453125 -1.3125 4.472656 -1.035156 4.515625 -0.859375 C 4.566406 -0.691406 4.648438 -0.578125 4.765625 -0.515625 C 4.890625 -0.460938 5.082031 -0.429688 5.34375 -0.421875 L 5.34375 0 L 0.25 0 L 0.25 -0.421875 C 0.539062 -0.429688 0.753906 -0.457031 0.890625 -0.5 C 1.023438 -0.550781 1.117188 -0.664062 1.171875 -0.84375 C 1.234375 -1.019531 1.265625 -1.304688 1.265625 -1.703125 L 1.265625 -7.71875 C 1.265625 -7.988281 1.179688 -8.179688 1.015625 -8.296875 C 0.847656 -8.410156 0.59375 -8.492188 0.25 -8.546875 L 0.25 -8.96875 L 4.453125 -8.96875 Z M 4.453125 -1.6875 "/></g></g></g><g fill="#0062ff" fill-opacity="1"><g transform="translate(36.163248, 14.807686)"><g><path d="M 3.609375 -12.15625 L 4.296875 -12.15625 L 4.296875 -8.96875 L 6.0625 -8.96875 L 6.0625 -7.90625 L 4.296875 -7.90625 L 4.296875 -2 C 4.296875 -1.582031 4.34375 -1.300781 4.4375 -1.15625 C 4.53125 -1.019531 4.675781 -0.953125 4.875 -0.953125 C 5.050781 -0.953125 5.210938 -1.015625 5.359375 -1.140625 C 5.515625 -1.265625 5.679688 -1.472656 5.859375 -1.765625 L 6.171875 -1.515625 C 5.648438 -0.378906 4.785156 0.1875 3.578125 0.1875 C 2.753906 0.1875 2.132812 -0.0078125 1.71875 -0.40625 C 1.3125 -0.8125 1.109375 -1.289062 1.109375 -1.84375 L 1.109375 -7.90625 L 0.03125 -7.90625 L 0.03125 -8.609375 C 0.945312 -9.003906 1.6875 -9.484375 2.25 -10.046875 C 2.820312 -10.609375 3.273438 -11.3125 3.609375 -12.15625 Z M 3.609375 -12.15625 "/></g></g></g><g fill="#0062ff" fill-opacity="1"><g transform="translate(42.54512, 14.807686)"><g><path d="M 4.546875 -1.703125 C 4.546875 -1.304688 4.566406 -1.019531 4.609375 -0.84375 C 4.648438 -0.675781 4.734375 -0.5625 4.859375 -0.5 C 4.984375 -0.445312 5.171875 -0.421875 5.421875 -0.421875 L 5.421875 0 L 0.265625 0 L 0.265625 -0.421875 C 0.671875 -0.429688 0.953125 -0.5 1.109375 -0.625 C 1.273438 -0.757812 1.359375 -1.050781 1.359375 -1.5 L 1.359375 -11.453125 C 1.359375 -11.828125 1.328125 -12.097656 1.265625 -12.265625 C 1.203125 -12.429688 1.097656 -12.539062 0.953125 -12.59375 C 0.816406 -12.644531 0.585938 -12.675781 0.265625 -12.6875 L 0.265625 -13.109375 L 4.546875 -13.109375 Z M 4.546875 -1.703125 "/></g></g></g><g fill="#0062ff" fill-opacity="1"><g transform="translate(48.313718, 14.807686)"><g><path d="M 2.8125 -13.6875 C 3.300781 -13.6875 3.710938 -13.519531 4.046875 -13.1875 C 4.378906 -12.851562 4.546875 -12.445312 4.546875 -11.96875 C 4.546875 -11.488281 4.378906 -11.078125 4.046875 -10.734375 C 3.710938 -10.398438 3.300781 -10.234375 2.8125 -10.234375 C 2.34375 -10.234375 1.9375 -10.398438 1.59375 -10.734375 C 1.257812 -11.078125 1.09375 -11.488281 1.09375 -11.96875 C 1.09375 -12.445312 1.257812 -12.851562 1.59375 -13.1875 C 1.9375 -13.519531 2.34375 -13.6875 2.8125 -13.6875 Z M 4.453125 -1.6875 C 4.453125 -1.3125 4.472656 -1.035156 4.515625 -0.859375 C 4.566406 -0.691406 4.648438 -0.578125 4.765625 -0.515625 C 4.890625 -0.460938 5.082031 -0.429688 5.34375 -0.421875 L 5.34375 0 L 0.25 0 L 0.25 -0.421875 C 0.539062 -0.429688 0.753906 -0.457031 0.890625 -0.5 C 1.023438 -0.550781 1.117188 -0.664062 1.171875 -0.84375 C 1.234375 -1.019531 1.265625 -1.304688 1.265625 -1.703125 L 1.265625 -7.71875 C 1.265625 -7.988281 1.179688 -8.179688 1.015625 -8.296875 C 0.847656 -8.410156 0.59375 -8.492188 0.25 -8.546875 L 0.25 -8.96875 L 4.453125 -8.96875 Z M 4.453125 -1.6875 "/></g></g></g><g fill="#0062ff" fill-opacity="1"><g transform="translate(53.909845, 14.807686)"><g><path d="M 3.515625 -9.109375 C 3.890625 -9.109375 4.203125 -9.0625 4.453125 -8.96875 C 4.710938 -8.882812 4.960938 -8.765625 5.203125 -8.609375 C 5.429688 -8.460938 5.59375 -8.390625 5.6875 -8.390625 C 5.820312 -8.390625 5.925781 -8.4375 6 -8.53125 C 6.070312 -8.625 6.144531 -8.769531 6.21875 -8.96875 L 6.5625 -8.96875 L 6.5625 -6.09375 L 6.140625 -6.09375 C 6.085938 -6.519531 5.925781 -6.910156 5.65625 -7.265625 C 5.394531 -7.617188 5.070312 -7.898438 4.6875 -8.109375 C 4.300781 -8.328125 3.898438 -8.4375 3.484375 -8.4375 C 3.222656 -8.4375 3.007812 -8.359375 2.84375 -8.203125 C 2.675781 -8.046875 2.59375 -7.851562 2.59375 -7.625 C 2.59375 -7.382812 2.710938 -7.160156 2.953125 -6.953125 C 3.203125 -6.742188 3.597656 -6.476562 4.140625 -6.15625 C 4.546875 -5.914062 4.898438 -5.691406 5.203125 -5.484375 C 5.503906 -5.273438 5.773438 -5.050781 6.015625 -4.8125 C 6.296875 -4.519531 6.503906 -4.222656 6.640625 -3.921875 C 6.785156 -3.628906 6.859375 -3.269531 6.859375 -2.84375 C 6.859375 -2.28125 6.722656 -1.765625 6.453125 -1.296875 C 6.191406 -0.828125 5.828125 -0.460938 5.359375 -0.203125 C 4.898438 0.0546875 4.390625 0.1875 3.828125 0.1875 C 3.515625 0.1875 3.226562 0.144531 2.96875 0.0625 C 2.71875 -0.0195312 2.410156 -0.144531 2.046875 -0.3125 C 1.742188 -0.457031 1.53125 -0.53125 1.40625 -0.53125 C 1.25 -0.53125 1.132812 -0.484375 1.0625 -0.390625 C 0.988281 -0.296875 0.9375 -0.164062 0.90625 0 L 0.515625 0 L 0.515625 -2.984375 L 0.90625 -2.984375 C 0.988281 -2.515625 1.175781 -2.085938 1.46875 -1.703125 C 1.769531 -1.316406 2.117188 -1.015625 2.515625 -0.796875 C 2.910156 -0.585938 3.3125 -0.484375 3.71875 -0.484375 C 3.988281 -0.484375 4.210938 -0.554688 4.390625 -0.703125 C 4.566406 -0.847656 4.65625 -1.035156 4.65625 -1.265625 C 4.65625 -1.378906 4.617188 -1.492188 4.546875 -1.609375 C 4.484375 -1.722656 4.351562 -1.867188 4.15625 -2.046875 C 4.007812 -2.191406 3.789062 -2.363281 3.5 -2.5625 C 3.207031 -2.757812 2.945312 -2.929688 2.71875 -3.078125 C 2.488281 -3.222656 2.320312 -3.328125 2.21875 -3.390625 C 1.75 -3.703125 1.347656 -4.0625 1.015625 -4.46875 C 0.691406 -4.882812 0.53125 -5.425781 0.53125 -6.09375 C 0.53125 -6.65625 0.65625 -7.164062 0.90625 -7.625 C 1.164062 -8.09375 1.523438 -8.457031 1.984375 -8.71875 C 2.441406 -8.976562 2.953125 -9.109375 3.515625 -9.109375 Z M 3.515625 -9.109375 "/></g></g></g><g fill="#0062ff" fill-opacity="1"><g transform="translate(61.288284, 14.807686)"><g><path d="M 3.609375 -12.15625 L 4.296875 -12.15625 L 4.296875 -8.96875 L 6.0625 -8.96875 L 6.0625 -7.90625 L 4.296875 -7.90625 L 4.296875 -2 C 4.296875 -1.582031 4.34375 -1.300781 4.4375 -1.15625 C 4.53125 -1.019531 4.675781 -0.953125 4.875 -0.953125 C 5.050781 -0.953125 5.210938 -1.015625 5.359375 -1.140625 C 5.515625 -1.265625 5.679688 -1.472656 5.859375 -1.765625 L 6.171875 -1.515625 C 5.648438 -0.378906 4.785156 0.1875 3.578125 0.1875 C 2.753906 0.1875 2.132812 -0.0078125 1.71875 -0.40625 C 1.3125 -0.8125 1.109375 -1.289062 1.109375 -1.84375 L 1.109375 -7.90625 L 0.03125 -7.90625 L 0.03125 -8.609375 C 0.945312 -9.003906 1.6875 -9.484375 2.25 -10.046875 C 2.820312 -10.609375 3.273438 -11.3125 3.609375 -12.15625 Z M 3.609375 -12.15625 "/></g></g></g><g fill="#0062ff" fill-opacity="1"><g transform="translate(67.670156, 14.807686)"><g/></g></g><g fill="#0062ff" fill-opacity="1"><g transform="translate(72.748832, 14.807686)"><g><path d="M 11.734375 -13.34375 L 12.109375 -13.34375 L 12.109375 -9.109375 L 11.734375 -9.109375 C 11.378906 -10.117188 10.882812 -10.910156 10.25 -11.484375 C 9.613281 -12.066406 8.925781 -12.359375 8.1875 -12.359375 C 7.570312 -12.359375 7.035156 -12.113281 6.578125 -11.625 C 6.117188 -11.144531 5.765625 -10.457031 5.515625 -9.5625 C 5.265625 -8.664062 5.140625 -7.617188 5.140625 -6.421875 C 5.140625 -4.660156 5.375 -3.285156 5.84375 -2.296875 C 6.320312 -1.304688 7.046875 -0.8125 8.015625 -0.8125 C 8.703125 -0.8125 9.394531 -1.039062 10.09375 -1.5 C 10.789062 -1.96875 11.460938 -2.707031 12.109375 -3.71875 L 12.109375 -2.421875 C 11.460938 -1.554688 10.703125 -0.90625 9.828125 -0.46875 C 8.960938 -0.03125 8.03125 0.1875 7.03125 0.1875 C 5.9375 0.1875 4.90625 -0.0664062 3.9375 -0.578125 C 2.976562 -1.085938 2.195312 -1.832031 1.59375 -2.8125 C 1 -3.789062 0.703125 -4.945312 0.703125 -6.28125 C 0.703125 -7.625 0.976562 -8.828125 1.53125 -9.890625 C 2.09375 -10.953125 2.875 -11.78125 3.875 -12.375 C 4.875 -12.976562 6.015625 -13.28125 7.296875 -13.28125 C 7.859375 -13.28125 8.328125 -13.226562 8.703125 -13.125 C 9.085938 -13.03125 9.472656 -12.898438 9.859375 -12.734375 C 10.023438 -12.648438 10.191406 -12.582031 10.359375 -12.53125 C 10.523438 -12.488281 10.675781 -12.46875 10.8125 -12.46875 C 11 -12.46875 11.160156 -12.53125 11.296875 -12.65625 C 11.441406 -12.789062 11.585938 -13.019531 11.734375 -13.34375 Z M 11.734375 -13.34375 "/></g></g></g><g fill="#0062ff" fill-opacity="1"><g transform="translate(85.550909, 14.807686)"><g><path d="M 5.09375 -9.21875 C 6.007812 -9.21875 6.8125 -9.019531 7.5 -8.625 C 8.1875 -8.238281 8.71875 -7.6875 9.09375 -6.96875 C 9.46875 -6.257812 9.65625 -5.429688 9.65625 -4.484375 C 9.65625 -3.617188 9.476562 -2.820312 9.125 -2.09375 C 8.769531 -1.363281 8.242188 -0.773438 7.546875 -0.328125 C 6.859375 0.109375 6.039062 0.328125 5.09375 0.328125 C 4.195312 0.328125 3.40625 0.125 2.71875 -0.28125 C 2.03125 -0.695312 1.492188 -1.269531 1.109375 -2 C 0.722656 -2.726562 0.53125 -3.554688 0.53125 -4.484375 C 0.53125 -5.421875 0.71875 -6.242188 1.09375 -6.953125 C 1.476562 -7.671875 2.015625 -8.226562 2.703125 -8.625 C 3.390625 -9.019531 4.1875 -9.21875 5.09375 -9.21875 Z M 3.75 -4.671875 C 3.75 -3.628906 3.785156 -2.800781 3.859375 -2.1875 C 3.929688 -1.570312 4.0625 -1.109375 4.25 -0.796875 C 4.445312 -0.492188 4.726562 -0.34375 5.09375 -0.34375 C 5.457031 -0.34375 5.734375 -0.488281 5.921875 -0.78125 C 6.117188 -1.082031 6.253906 -1.539062 6.328125 -2.15625 C 6.398438 -2.78125 6.4375 -3.617188 6.4375 -4.671875 C 6.4375 -5.710938 6.394531 -6.503906 6.3125 -7.046875 C 6.226562 -7.597656 6.09375 -7.984375 5.90625 -8.203125 C 5.71875 -8.429688 5.441406 -8.546875 5.078125 -8.546875 C 4.691406 -8.546875 4.40625 -8.398438 4.21875 -8.109375 C 4.03125 -7.816406 3.90625 -7.398438 3.84375 -6.859375 C 3.78125 -6.328125 3.75 -5.597656 3.75 -4.671875 Z M 3.75 -4.671875 "/></g></g></g><g fill="#0062ff" fill-opacity="1"><g transform="translate(95.727419, 14.807686)"><g><path d="M 6.765625 -9.21875 C 7.210938 -9.21875 7.597656 -9.097656 7.921875 -8.859375 C 8.253906 -8.628906 8.578125 -8.242188 8.890625 -7.703125 C 9.335938 -8.265625 9.75 -8.65625 10.125 -8.875 C 10.507812 -9.101562 10.957031 -9.21875 11.46875 -9.21875 C 12.363281 -9.21875 13.015625 -8.910156 13.421875 -8.296875 C 13.835938 -7.679688 14.046875 -6.9375 14.046875 -6.0625 L 14.046875 -1.703125 C 14.046875 -1.335938 14.066406 -1.0625 14.109375 -0.875 C 14.160156 -0.6875 14.238281 -0.5625 14.34375 -0.5 C 14.445312 -0.445312 14.59375 -0.421875 14.78125 -0.421875 L 14.78125 0 L 10.21875 0 L 10.21875 -0.421875 C 10.382812 -0.429688 10.507812 -0.460938 10.59375 -0.515625 C 10.6875 -0.578125 10.753906 -0.695312 10.796875 -0.875 C 10.847656 -1.0625 10.875 -1.335938 10.875 -1.703125 L 10.875 -7.03125 C 10.875 -7.375 10.816406 -7.597656 10.703125 -7.703125 C 10.585938 -7.816406 10.445312 -7.875 10.28125 -7.875 C 9.84375 -7.875 9.472656 -7.613281 9.171875 -7.09375 L 9.171875 -1.09375 C 9.171875 -0.800781 9.191406 -0.617188 9.234375 -0.546875 C 9.273438 -0.472656 9.375 -0.429688 9.53125 -0.421875 L 9.53125 0 L 5.6875 0 L 5.6875 -0.421875 C 5.84375 -0.429688 5.941406 -0.472656 5.984375 -0.546875 C 6.035156 -0.628906 6.0625 -0.820312 6.0625 -1.125 L 6.0625 -7.0625 C 6.0625 -7.40625 6.015625 -7.625 5.921875 -7.71875 C 5.835938 -7.820312 5.722656 -7.875 5.578125 -7.875 C 5.191406 -7.875 4.785156 -7.484375 4.359375 -6.703125 L 4.359375 -1.6875 C 4.359375 -1.3125 4.378906 -1.035156 4.421875 -0.859375 C 4.460938 -0.679688 4.523438 -0.5625 4.609375 -0.5 C 4.703125 -0.445312 4.835938 -0.421875 5.015625 -0.421875 L 5.015625 0 L 0.34375 0 L 0.34375 -0.421875 C 0.664062 -0.421875 0.882812 -0.488281 1 -0.625 C 1.113281 -0.769531 1.171875 -1.070312 1.171875 -1.53125 L 1.171875 -7.5 C 1.171875 -7.863281 1.097656 -8.125 0.953125 -8.28125 C 0.816406 -8.445312 0.613281 -8.535156 0.34375 -8.546875 L 0.34375 -8.96875 L 4.359375 -8.96875 L 4.359375 -7.703125 L 4.390625 -7.703125 C 4.765625 -8.242188 5.144531 -8.628906 5.53125 -8.859375 C 5.914062 -9.097656 6.328125 -9.21875 6.765625 -9.21875 Z M 6.765625 -9.21875 "/></g></g></g><g fill="#0062ff" fill-opacity="1"><g transform="translate(110.714294, 14.807686)"><g><path d="M 6.59375 -9.21875 C 7.601562 -9.21875 8.398438 -8.796875 8.984375 -7.953125 C 9.578125 -7.109375 9.875 -5.976562 9.875 -4.5625 C 9.875 -3.601562 9.734375 -2.765625 9.453125 -2.046875 C 9.179688 -1.335938 8.789062 -0.785156 8.28125 -0.390625 C 7.769531 -0.00390625 7.175781 0.1875 6.5 0.1875 C 5.707031 0.1875 5.03125 -0.0820312 4.46875 -0.625 L 4.46875 2.515625 C 4.46875 2.921875 4.550781 3.191406 4.71875 3.328125 C 4.894531 3.460938 5.203125 3.535156 5.640625 3.546875 L 5.640625 3.96875 L 0.15625 3.96875 L 0.15625 3.546875 C 0.46875 3.535156 0.703125 3.503906 0.859375 3.453125 C 1.015625 3.398438 1.125 3.285156 1.1875 3.109375 C 1.25 2.941406 1.28125 2.664062 1.28125 2.28125 L 1.28125 -7.421875 C 1.28125 -7.878906 1.191406 -8.179688 1.015625 -8.328125 C 0.847656 -8.472656 0.5625 -8.546875 0.15625 -8.546875 L 0.15625 -8.96875 L 4.46875 -8.96875 L 4.46875 -8.109375 L 4.5 -8.109375 C 4.800781 -8.503906 5.109375 -8.785156 5.421875 -8.953125 C 5.742188 -9.128906 6.132812 -9.21875 6.59375 -9.21875 Z M 5.625 -0.84375 C 5.851562 -0.84375 6.03125 -0.953125 6.15625 -1.171875 C 6.28125 -1.390625 6.367188 -1.75 6.421875 -2.25 C 6.484375 -2.757812 6.515625 -3.460938 6.515625 -4.359375 C 6.515625 -5.328125 6.484375 -6.0625 6.421875 -6.5625 C 6.367188 -7.070312 6.273438 -7.425781 6.140625 -7.625 C 6.003906 -7.832031 5.8125 -7.9375 5.5625 -7.9375 C 5.289062 -7.9375 5.039062 -7.78125 4.8125 -7.46875 C 4.582031 -7.164062 4.46875 -6.789062 4.46875 -6.34375 L 4.46875 -1.765625 C 4.570312 -1.492188 4.726562 -1.269531 4.9375 -1.09375 C 5.144531 -0.925781 5.375 -0.84375 5.625 -0.84375 Z M 5.625 -0.84375 "/></g></g></g><g fill="#0062ff" fill-opacity="1"><g transform="translate(121.10161, 14.807686)"><g><path d="M 4.625 -9.21875 C 5.820312 -9.21875 6.710938 -9.019531 7.296875 -8.625 C 7.890625 -8.226562 8.1875 -7.695312 8.1875 -7.03125 L 8.1875 -1.84375 C 8.1875 -1.476562 8.210938 -1.242188 8.265625 -1.140625 C 8.328125 -1.035156 8.414062 -0.984375 8.53125 -0.984375 C 8.707031 -0.984375 8.878906 -1.113281 9.046875 -1.375 L 9.359375 -1.171875 C 9.140625 -0.742188 8.828125 -0.410156 8.421875 -0.171875 C 8.023438 0.0664062 7.578125 0.1875 7.078125 0.1875 C 6.566406 0.1875 6.132812 0.078125 5.78125 -0.140625 C 5.425781 -0.367188 5.207031 -0.710938 5.125 -1.171875 C 4.507812 -0.660156 3.992188 -0.304688 3.578125 -0.109375 C 3.171875 0.0859375 2.738281 0.1875 2.28125 0.1875 C 1.695312 0.1875 1.21875 0.00390625 0.84375 -0.359375 C 0.46875 -0.722656 0.28125 -1.175781 0.28125 -1.71875 C 0.28125 -2.519531 0.6875 -3.222656 1.5 -3.828125 C 2.320312 -4.429688 3.53125 -4.960938 5.125 -5.421875 L 5.125 -7.125 C 5.125 -7.644531 5.03125 -7.992188 4.84375 -8.171875 C 4.65625 -8.359375 4.390625 -8.453125 4.046875 -8.453125 C 3.734375 -8.453125 3.46875 -8.378906 3.25 -8.234375 C 3.039062 -8.085938 2.9375 -7.914062 2.9375 -7.71875 C 2.9375 -7.632812 2.953125 -7.5625 2.984375 -7.5 C 3.023438 -7.445312 3.082031 -7.390625 3.15625 -7.328125 C 3.257812 -7.222656 3.335938 -7.117188 3.390625 -7.015625 C 3.453125 -6.910156 3.484375 -6.765625 3.484375 -6.578125 C 3.484375 -6.234375 3.335938 -5.929688 3.046875 -5.671875 C 2.753906 -5.421875 2.410156 -5.296875 2.015625 -5.296875 C 1.585938 -5.296875 1.21875 -5.441406 0.90625 -5.734375 C 0.601562 -6.035156 0.453125 -6.394531 0.453125 -6.8125 C 0.453125 -7.238281 0.640625 -7.632812 1.015625 -8 C 1.390625 -8.375 1.894531 -8.671875 2.53125 -8.890625 C 3.164062 -9.109375 3.863281 -9.21875 4.625 -9.21875 Z M 3.375 -2.4375 C 3.375 -2.15625 3.445312 -1.921875 3.59375 -1.734375 C 3.738281 -1.546875 3.925781 -1.453125 4.15625 -1.453125 C 4.46875 -1.453125 4.789062 -1.617188 5.125 -1.953125 L 5.125 -4.640625 C 4.613281 -4.398438 4.191406 -4.097656 3.859375 -3.734375 C 3.535156 -3.367188 3.375 -2.9375 3.375 -2.4375 Z M 3.375 -2.4375 "/></g></g></g><g fill="#0062ff" fill-opacity="1"><g transform="translate(130.492358, 14.807686)"><g><path d="M 6.90625 -9.21875 C 7.757812 -9.21875 8.398438 -8.929688 8.828125 -8.359375 C 9.253906 -7.796875 9.46875 -7.09375 9.46875 -6.25 L 9.46875 -1.703125 C 9.46875 -1.171875 9.519531 -0.820312 9.625 -0.65625 C 9.738281 -0.5 9.9375 -0.421875 10.21875 -0.421875 L 10.21875 0 L 5.640625 0 L 5.640625 -0.421875 C 6.066406 -0.421875 6.28125 -0.734375 6.28125 -1.359375 L 6.28125 -6.953125 C 6.28125 -7.179688 6.226562 -7.390625 6.125 -7.578125 C 6.03125 -7.773438 5.851562 -7.875 5.59375 -7.875 C 5.195312 -7.875 4.769531 -7.46875 4.3125 -6.65625 L 4.3125 -1.703125 C 4.3125 -1.335938 4.335938 -1.0625 4.390625 -0.875 C 4.441406 -0.695312 4.515625 -0.578125 4.609375 -0.515625 C 4.703125 -0.460938 4.835938 -0.429688 5.015625 -0.421875 L 5.015625 0 L 0.390625 0 L 0.390625 -0.421875 C 0.671875 -0.421875 0.863281 -0.5 0.96875 -0.65625 C 1.070312 -0.820312 1.125 -1.171875 1.125 -1.703125 L 1.125 -7.484375 C 1.125 -7.847656 1.0625 -8.109375 0.9375 -8.265625 C 0.820312 -8.429688 0.640625 -8.523438 0.390625 -8.546875 L 0.390625 -8.96875 L 4.3125 -8.96875 L 4.3125 -7.84375 L 4.359375 -7.84375 C 4.710938 -8.300781 5.085938 -8.644531 5.484375 -8.875 C 5.890625 -9.101562 6.363281 -9.21875 6.90625 -9.21875 Z M 6.90625 -9.21875 "/></g></g></g><g fill="#0062ff" fill-opacity="1"><g transform="translate(140.879674, 14.807686)"><g><path d="M 2.8125 -13.6875 C 3.300781 -13.6875 3.710938 -13.519531 4.046875 -13.1875 C 4.378906 -12.851562 4.546875 -12.445312 4.546875 -11.96875 C 4.546875 -11.488281 4.378906 -11.078125 4.046875 -10.734375 C 3.710938 -10.398438 3.300781 -10.234375 2.8125 -10.234375 C 2.34375 -10.234375 1.9375 -10.398438 1.59375 -10.734375 C 1.257812 -11.078125 1.09375 -11.488281 1.09375 -11.96875 C 1.09375 -12.445312 1.257812 -12.851562 1.59375 -13.1875 C 1.9375 -13.519531 2.34375 -13.6875 2.8125 -13.6875 Z M 4.453125 -1.6875 C 4.453125 -1.3125 4.472656 -1.035156 4.515625 -0.859375 C 4.566406 -0.691406 4.648438 -0.578125 4.765625 -0.515625 C 4.890625 -0.460938 5.082031 -0.429688 5.34375 -0.421875 L 5.34375 0 L 0.25 0 L 0.25 -0.421875 C 0.539062 -0.429688 0.753906 -0.457031 0.890625 -0.5 C 1.023438 -0.550781 1.117188 -0.664062 1.171875 -0.84375 C 1.234375 -1.019531 1.265625 -1.304688 1.265625 -1.703125 L 1.265625 -7.71875 C 1.265625 -7.988281 1.179688 -8.179688 1.015625 -8.296875 C 0.847656 -8.410156 0.59375 -8.492188 0.25 -8.546875 L 0.25 -8.96875 L 4.453125 -8.96875 Z M 4.453125 -1.6875 "/></g></g></g><g fill="#0062ff" fill-opacity="1"><g transform="translate(146.4758, 14.807686)"><g><path d="M 5.09375 -9.21875 C 6.007812 -9.21875 6.8125 -9.019531 7.5 -8.625 C 8.1875 -8.238281 8.71875 -7.6875 9.09375 -6.96875 C 9.46875 -6.257812 9.65625 -5.429688 9.65625 -4.484375 C 9.65625 -3.617188 9.476562 -2.820312 9.125 -2.09375 C 8.769531 -1.363281 8.242188 -0.773438 7.546875 -0.328125 C 6.859375 0.109375 6.039062 0.328125 5.09375 0.328125 C 4.195312 0.328125 3.40625 0.125 2.71875 -0.28125 C 2.03125 -0.695312 1.492188 -1.269531 1.109375 -2 C 0.722656 -2.726562 0.53125 -3.554688 0.53125 -4.484375 C 0.53125 -5.421875 0.71875 -6.242188 1.09375 -6.953125 C 1.476562 -7.671875 2.015625 -8.226562 2.703125 -8.625 C 3.390625 -9.019531 4.1875 -9.21875 5.09375 -9.21875 Z M 3.75 -4.671875 C 3.75 -3.628906 3.785156 -2.800781 3.859375 -2.1875 C 3.929688 -1.570312 4.0625 -1.109375 4.25 -0.796875 C 4.445312 -0.492188 4.726562 -0.34375 5.09375 -0.34375 C 5.457031 -0.34375 5.734375 -0.488281 5.921875 -0.78125 C 6.117188 -1.082031 6.253906 -1.539062 6.328125 -2.15625 C 6.398438 -2.78125 6.4375 -3.617188 6.4375 -4.671875 C 6.4375 -5.710938 6.394531 -6.503906 6.3125 -7.046875 C 6.226562 -7.597656 6.09375 -7.984375 5.90625 -8.203125 C 5.71875 -8.429688 5.441406 -8.546875 5.078125 -8.546875 C 4.691406 -8.546875 4.40625 -8.398438 4.21875 -8.109375 C 4.03125 -7.816406 3.90625 -7.398438 3.84375 -6.859375 C 3.78125 -6.328125 3.75 -5.597656 3.75 -4.671875 Z M 3.75 -4.671875 "/></g></g></g><g fill="#0062ff" fill-opacity="1"><g transform="translate(156.652311, 14.807686)"><g><path d="M 6.90625 -9.21875 C 7.757812 -9.21875 8.398438 -8.929688 8.828125 -8.359375 C 9.253906 -7.796875 9.46875 -7.09375 9.46875 -6.25 L 9.46875 -1.703125 C 9.46875 -1.171875 9.519531 -0.820312 9.625 -0.65625 C 9.738281 -0.5 9.9375 -0.421875 10.21875 -0.421875 L 10.21875 0 L 5.640625 0 L 5.640625 -0.421875 C 6.066406 -0.421875 6.28125 -0.734375 6.28125 -1.359375 L 6.28125 -6.953125 C 6.28125 -7.179688 6.226562 -7.390625 6.125 -7.578125 C 6.03125 -7.773438 5.851562 -7.875 5.59375 -7.875 C 5.195312 -7.875 4.769531 -7.46875 4.3125 -6.65625 L 4.3125 -1.703125 C 4.3125 -1.335938 4.335938 -1.0625 4.390625 -0.875 C 4.441406 -0.695312 4.515625 -0.578125 4.609375 -0.515625 C 4.703125 -0.460938 4.835938 -0.429688 5.015625 -0.421875 L 5.015625 0 L 0.390625 0 L 0.390625 -0.421875 C 0.671875 -0.421875 0.863281 -0.5 0.96875 -0.65625 C 1.070312 -0.820312 1.125 -1.171875 1.125 -1.703125 L 1.125 -7.484375 C 1.125 -7.847656 1.0625 -8.109375 0.9375 -8.265625 C 0.820312 -8.429688 0.640625 -8.523438 0.390625 -8.546875 L 0.390625 -8.96875 L 4.3125 -8.96875 L 4.3125 -7.84375 L 4.359375 -7.84375 C 4.710938 -8.300781 5.085938 -8.644531 5.484375 -8.875 C 5.890625 -9.101562 6.363281 -9.21875 6.90625 -9.21875 Z M 6.90625 -9.21875 "/></g></g></g><g fill="#0062ff" fill-opacity="1"><g transform="translate(167.039627, 14.807686)"><g><path d="M 7.6875 -10.984375 L 7.359375 -10.984375 C 7.335938 -11.484375 7.234375 -11.847656 7.046875 -12.078125 C 6.859375 -12.316406 6.625 -12.460938 6.34375 -12.515625 C 6.070312 -12.578125 5.691406 -12.609375 5.203125 -12.609375 L 5.203125 -7.015625 C 5.203125 -6.679688 5.226562 -6.4375 5.28125 -6.28125 C 5.34375 -6.132812 5.4375 -6.035156 5.5625 -5.984375 C 5.6875 -5.929688 5.882812 -5.898438 6.15625 -5.890625 L 6.15625 -5.5625 L 1.921875 -5.5625 L 1.921875 -5.890625 C 2.234375 -5.910156 2.445312 -5.9375 2.5625 -5.96875 C 2.675781 -6 2.753906 -6.082031 2.796875 -6.21875 C 2.847656 -6.351562 2.875 -6.585938 2.875 -6.921875 L 2.875 -12.609375 L 2.5625 -12.609375 C 1.9375 -12.609375 1.488281 -12.484375 1.21875 -12.234375 C 0.957031 -11.992188 0.796875 -11.578125 0.734375 -10.984375 L 0.421875 -10.984375 L 0.421875 -13.109375 L 7.6875 -13.109375 Z M 14.34375 -8.46875 L 16.46875 -13.109375 L 19.734375 -13.109375 L 19.734375 -12.75 L 19.65625 -12.75 C 19.3125 -12.75 19.078125 -12.675781 18.953125 -12.53125 C 18.828125 -12.382812 18.765625 -12.070312 18.765625 -11.59375 L 18.765625 -6.828125 C 18.765625 -6.460938 18.84375 -6.21875 19 -6.09375 C 19.15625 -5.976562 19.398438 -5.910156 19.734375 -5.890625 L 19.734375 -5.5625 L 15.421875 -5.5625 L 15.421875 -5.890625 C 15.722656 -5.898438 15.941406 -5.925781 16.078125 -5.96875 C 16.222656 -6.019531 16.320312 -6.117188 16.375 -6.265625 C 16.4375 -6.410156 16.46875 -6.65625 16.46875 -7 L 16.46875 -11.8125 L 16.4375 -11.8125 L 13.5 -5.5625 L 13.265625 -5.5625 L 10.3125 -11.8125 L 10.28125 -11.8125 L 10.28125 -6.90625 C 10.28125 -6.476562 10.351562 -6.203125 10.5 -6.078125 C 10.65625 -5.960938 10.9375 -5.898438 11.34375 -5.890625 L 11.34375 -5.5625 L 8.71875 -5.5625 L 8.71875 -5.890625 C 9.039062 -5.910156 9.265625 -5.941406 9.390625 -5.984375 C 9.523438 -6.023438 9.617188 -6.113281 9.671875 -6.25 C 9.734375 -6.394531 9.765625 -6.640625 9.765625 -6.984375 L 9.765625 -11.625 C 9.765625 -11.96875 9.734375 -12.21875 9.671875 -12.375 C 9.617188 -12.53125 9.523438 -12.628906 9.390625 -12.671875 C 9.253906 -12.710938 9.03125 -12.738281 8.71875 -12.75 L 8.71875 -13.109375 L 12.171875 -13.109375 Z M 14.34375 -8.46875 "/></g></g></g></g></g></g><g transform="matrix(1, 0, 0, 1, 35, 19)"><g clip-path="url(#ef9e023053)"><g clip-path="url(#9c64fc6140)"><g fill="#0062ff" fill-opacity="1"><g transform="translate(0.604617, 4.828877)"><g><path d="M 2 -3.59375 C 1.789062 -3.59375 1.644531 -3.5625 1.5625 -3.5 C 1.488281 -3.445312 1.453125 -3.34375 1.453125 -3.1875 L 1.453125 -0.5 C 1.453125 -0.34375 1.488281 -0.238281 1.5625 -0.1875 C 1.644531 -0.132812 1.785156 -0.101562 1.984375 -0.09375 L 1.984375 0 L 0.21875 0 L 0.21875 -0.09375 C 0.414062 -0.101562 0.550781 -0.132812 0.625 -0.1875 C 0.707031 -0.238281 0.75 -0.34375 0.75 -0.5 L 0.75 -3.1875 C 0.75 -3.351562 0.707031 -3.460938 0.625 -3.515625 C 0.550781 -3.566406 0.414062 -3.59375 0.21875 -3.59375 L 0.21875 -3.703125 L 2 -3.703125 Z M 2 -3.59375 "/></g></g></g></g><g fill="#0062ff" fill-opacity="1"><g transform="translate(2.806107, 4.828877)"><g><path d="M 1.078125 -2.5625 L 1.078125 -2.0625 C 1.347656 -2.394531 1.625 -2.5625 1.90625 -2.5625 C 2.101562 -2.5625 2.257812 -2.488281 2.375 -2.34375 C 2.5 -2.195312 2.5625 -2 2.5625 -1.75 L 2.5625 -0.5 C 2.5625 -0.351562 2.585938 -0.25 2.640625 -0.1875 C 2.703125 -0.125 2.789062 -0.09375 2.90625 -0.09375 L 2.90625 0 L 1.625 0 L 1.625 -0.09375 C 1.707031 -0.101562 1.769531 -0.117188 1.8125 -0.140625 C 1.863281 -0.160156 1.898438 -0.203125 1.921875 -0.265625 C 1.953125 -0.335938 1.96875 -0.4375 1.96875 -0.5625 L 1.96875 -1.578125 C 1.96875 -1.816406 1.9375 -1.972656 1.875 -2.046875 C 1.820312 -2.117188 1.738281 -2.15625 1.625 -2.15625 C 1.53125 -2.15625 1.4375 -2.128906 1.34375 -2.078125 C 1.25 -2.023438 1.160156 -1.953125 1.078125 -1.859375 L 1.078125 -0.5625 C 1.078125 -0.375 1.101562 -0.25 1.15625 -0.1875 C 1.207031 -0.125 1.296875 -0.09375 1.421875 -0.09375 L 1.421875 0 L 0.140625 0 L 0.140625 -0.09375 C 0.265625 -0.09375 0.351562 -0.125 0.40625 -0.1875 C 0.46875 -0.25 0.5 -0.351562 0.5 -0.5 L 0.5 -1.78125 C 0.5 -1.945312 0.476562 -2.054688 0.4375 -2.109375 C 0.394531 -2.160156 0.335938 -2.1875 0.265625 -2.1875 C 0.234375 -2.1875 0.191406 -2.179688 0.140625 -2.171875 L 0.109375 -2.265625 L 0.96875 -2.5625 Z M 1.078125 -2.5625 "/></g></g></g><g fill="#0062ff" fill-opacity="1"><g transform="translate(5.799266, 4.828877)"><g><path d="M 0.921875 -3.34375 L 1.046875 -3.34375 L 1.046875 -2.484375 L 1.625 -2.484375 L 1.625 -2.28125 L 1.046875 -2.28125 L 1.046875 -0.703125 C 1.046875 -0.429688 1.128906 -0.296875 1.296875 -0.296875 C 1.410156 -0.296875 1.519531 -0.375 1.625 -0.53125 L 1.71875 -0.484375 C 1.644531 -0.316406 1.546875 -0.1875 1.421875 -0.09375 C 1.304688 0 1.171875 0.046875 1.015625 0.046875 C 0.816406 0.046875 0.671875 -0.00390625 0.578125 -0.109375 C 0.492188 -0.210938 0.453125 -0.378906 0.453125 -0.609375 L 0.453125 -2.28125 L 0.078125 -2.28125 L 0.078125 -2.40625 C 0.296875 -2.5 0.46875 -2.617188 0.59375 -2.765625 C 0.726562 -2.910156 0.835938 -3.101562 0.921875 -3.34375 Z M 0.921875 -3.34375 "/></g></g></g><g fill="#0062ff" fill-opacity="1"><g transform="translate(7.550693, 4.828877)"><g><path d="M 1.375 -2.5625 C 1.664062 -2.5625 1.894531 -2.46875 2.0625 -2.28125 C 2.238281 -2.101562 2.328125 -1.859375 2.328125 -1.546875 L 0.71875 -1.546875 C 0.726562 -1.328125 0.769531 -1.128906 0.84375 -0.953125 C 0.914062 -0.785156 1.007812 -0.65625 1.125 -0.5625 C 1.25 -0.46875 1.390625 -0.421875 1.546875 -0.421875 C 1.847656 -0.421875 2.082031 -0.582031 2.25 -0.90625 L 2.328125 -0.875 C 2.265625 -0.570312 2.140625 -0.335938 1.953125 -0.171875 C 1.773438 -0.00390625 1.554688 0.078125 1.296875 0.078125 C 1.085938 0.078125 0.898438 0.0234375 0.734375 -0.078125 C 0.578125 -0.191406 0.453125 -0.34375 0.359375 -0.53125 C 0.273438 -0.71875 0.234375 -0.9375 0.234375 -1.1875 C 0.234375 -1.445312 0.28125 -1.679688 0.375 -1.890625 C 0.476562 -2.097656 0.613281 -2.257812 0.78125 -2.375 C 0.957031 -2.5 1.15625 -2.5625 1.375 -2.5625 Z M 0.734375 -1.734375 L 1.71875 -1.734375 C 1.707031 -1.910156 1.660156 -2.054688 1.578125 -2.171875 C 1.503906 -2.285156 1.390625 -2.34375 1.234375 -2.34375 C 0.953125 -2.34375 0.785156 -2.140625 0.734375 -1.734375 Z M 0.734375 -1.734375 "/></g></g></g><g fill="#0062ff" fill-opacity="1"><g transform="translate(10.09379, 4.828877)"><g><path d="M 1.078125 -1.96875 C 1.191406 -2.175781 1.296875 -2.328125 1.390625 -2.421875 C 1.492188 -2.515625 1.609375 -2.5625 1.734375 -2.5625 C 1.828125 -2.5625 1.90625 -2.53125 1.96875 -2.46875 C 2.03125 -2.40625 2.0625 -2.332031 2.0625 -2.25 C 2.0625 -2.164062 2.035156 -2.097656 1.984375 -2.046875 C 1.929688 -1.992188 1.875 -1.96875 1.8125 -1.96875 C 1.757812 -1.96875 1.707031 -1.972656 1.65625 -1.984375 C 1.613281 -2.003906 1.566406 -2.03125 1.515625 -2.0625 C 1.472656 -2.101562 1.441406 -2.125 1.421875 -2.125 C 1.359375 -2.125 1.300781 -2.09375 1.25 -2.03125 C 1.195312 -1.96875 1.140625 -1.878906 1.078125 -1.765625 L 1.078125 -0.5 C 1.078125 -0.351562 1.101562 -0.25 1.15625 -0.1875 C 1.207031 -0.125 1.296875 -0.09375 1.421875 -0.09375 L 1.421875 0 L 0.140625 0 L 0.140625 -0.09375 C 0.265625 -0.09375 0.351562 -0.125 0.40625 -0.1875 C 0.46875 -0.25 0.5 -0.351562 0.5 -0.5 L 0.5 -1.875 C 0.5 -2.007812 0.484375 -2.097656 0.453125 -2.140625 C 0.421875 -2.179688 0.378906 -2.203125 0.328125 -2.203125 C 0.285156 -2.203125 0.21875 -2.1875 0.125 -2.15625 L 0.09375 -2.25 L 0.953125 -2.5625 L 1.078125 -2.5625 Z M 1.078125 -1.96875 "/></g></g></g><g clip-path="url(#a8668d19fb)"><g fill="#0062ff" fill-opacity="1"><g transform="translate(12.127183, 4.828877)"><g><path d="M 0.78125 -3.859375 C 0.882812 -3.859375 0.96875 -3.820312 1.03125 -3.75 C 1.101562 -3.6875 1.140625 -3.601562 1.140625 -3.5 C 1.140625 -3.40625 1.101562 -3.320312 1.03125 -3.25 C 0.96875 -3.1875 0.882812 -3.15625 0.78125 -3.15625 C 0.6875 -3.15625 0.601562 -3.1875 0.53125 -3.25 C 0.46875 -3.320312 0.4375 -3.40625 0.4375 -3.5 C 0.4375 -3.601562 0.46875 -3.6875 0.53125 -3.75 C 0.601562 -3.820312 0.6875 -3.859375 0.78125 -3.859375 Z M 1.078125 -0.5625 C 1.078125 -0.382812 1.101562 -0.257812 1.15625 -0.1875 C 1.207031 -0.125 1.304688 -0.09375 1.453125 -0.09375 L 1.453125 0 L 0.125 0 L 0.125 -0.09375 C 0.269531 -0.09375 0.367188 -0.125 0.421875 -0.1875 C 0.472656 -0.257812 0.5 -0.382812 0.5 -0.5625 L 0.5 -1.765625 C 0.5 -2.046875 0.425781 -2.1875 0.28125 -2.1875 C 0.25 -2.1875 0.195312 -2.175781 0.125 -2.15625 L 0.09375 -2.25 L 0.96875 -2.546875 L 1.078125 -2.546875 Z M 1.078125 -0.5625 "/></g></g></g></g><g fill="#0062ff" fill-opacity="1"><g transform="translate(13.650873, 4.828877)"><g><path d="M 1.078125 -2.0625 C 1.242188 -2.25 1.382812 -2.378906 1.5 -2.453125 C 1.625 -2.523438 1.753906 -2.5625 1.890625 -2.5625 C 2.046875 -2.5625 2.179688 -2.515625 2.296875 -2.421875 C 2.410156 -2.335938 2.488281 -2.207031 2.53125 -2.03125 C 2.6875 -2.207031 2.832031 -2.335938 2.96875 -2.421875 C 3.101562 -2.515625 3.238281 -2.5625 3.375 -2.5625 C 3.613281 -2.5625 3.785156 -2.472656 3.890625 -2.296875 C 3.992188 -2.117188 4.046875 -1.914062 4.046875 -1.6875 L 4.046875 -0.5 C 4.046875 -0.351562 4.070312 -0.25 4.125 -0.1875 C 4.175781 -0.125 4.265625 -0.09375 4.390625 -0.09375 L 4.390625 0 L 3.09375 0 L 3.09375 -0.09375 C 3.226562 -0.09375 3.316406 -0.125 3.359375 -0.1875 C 3.410156 -0.25 3.4375 -0.375 3.4375 -0.5625 L 3.4375 -1.578125 C 3.4375 -1.796875 3.410156 -1.945312 3.359375 -2.03125 C 3.304688 -2.113281 3.21875 -2.15625 3.09375 -2.15625 C 2.925781 -2.15625 2.742188 -2.050781 2.546875 -1.84375 C 2.554688 -1.800781 2.5625 -1.660156 2.5625 -1.421875 L 2.5625 -0.53125 C 2.5625 -0.414062 2.570312 -0.328125 2.59375 -0.265625 C 2.613281 -0.203125 2.644531 -0.160156 2.6875 -0.140625 C 2.738281 -0.117188 2.804688 -0.101562 2.890625 -0.09375 L 2.890625 0 L 1.625 0 L 1.625 -0.09375 C 1.71875 -0.09375 1.785156 -0.101562 1.828125 -0.125 C 1.878906 -0.15625 1.914062 -0.207031 1.9375 -0.28125 C 1.957031 -0.351562 1.96875 -0.46875 1.96875 -0.625 L 1.96875 -1.71875 C 1.96875 -1.851562 1.9375 -1.957031 1.875 -2.03125 C 1.8125 -2.113281 1.722656 -2.15625 1.609375 -2.15625 C 1.441406 -2.15625 1.265625 -2.054688 1.078125 -1.859375 L 1.078125 -0.53125 C 1.078125 -0.375 1.097656 -0.265625 1.140625 -0.203125 C 1.191406 -0.140625 1.285156 -0.101562 1.421875 -0.09375 L 1.421875 0 L 0.140625 0 L 0.140625 -0.09375 C 0.265625 -0.09375 0.351562 -0.125 0.40625 -0.1875 C 0.46875 -0.25 0.5 -0.351562 0.5 -0.5 L 0.5 -1.78125 C 0.5 -1.925781 0.476562 -2.03125 0.4375 -2.09375 C 0.40625 -2.15625 0.347656 -2.1875 0.265625 -2.1875 C 0.234375 -2.1875 0.203125 -2.179688 0.171875 -2.171875 C 0.148438 -2.171875 0.132812 -2.164062 0.125 -2.15625 L 0.109375 -2.25 L 0.96875 -2.5625 L 1.078125 -2.5625 Z M 1.078125 -2.0625 "/></g></g></g><g fill="#0062ff" fill-opacity="1"><g transform="translate(18.113493, 4.828877)"><g/></g></g><g fill="#0062ff" fill-opacity="1"><g transform="translate(19.523314, 4.828877)"><g><path d="M 2.640625 -1.015625 L 3.828125 -3.703125 L 5.078125 -3.703125 L 5.078125 -3.59375 C 4.941406 -3.59375 4.832031 -3.582031 4.75 -3.5625 C 4.675781 -3.539062 4.625 -3.5 4.59375 -3.4375 C 4.5625 -3.375 4.546875 -3.289062 4.546875 -3.1875 L 4.546875 -0.5 C 4.546875 -0.34375 4.582031 -0.238281 4.65625 -0.1875 C 4.738281 -0.132812 4.878906 -0.101562 5.078125 -0.09375 L 5.078125 0 L 3.296875 0 L 3.296875 -0.09375 C 3.492188 -0.101562 3.628906 -0.132812 3.703125 -0.1875 C 3.785156 -0.238281 3.828125 -0.34375 3.828125 -0.5 L 3.828125 -3.078125 L 2.453125 0 L 2.359375 0 L 0.96875 -3.078125 L 0.953125 -3.078125 L 0.953125 -0.5 C 0.953125 -0.34375 0.988281 -0.238281 1.0625 -0.1875 C 1.144531 -0.132812 1.285156 -0.101562 1.484375 -0.09375 L 1.484375 0 L 0.171875 0 L 0.171875 -0.09375 C 0.367188 -0.101562 0.503906 -0.132812 0.578125 -0.1875 C 0.660156 -0.238281 0.703125 -0.34375 0.703125 -0.5 L 0.703125 -3.1875 C 0.703125 -3.351562 0.660156 -3.460938 0.578125 -3.515625 C 0.503906 -3.566406 0.367188 -3.59375 0.171875 -3.59375 L 0.171875 -3.703125 L 1.421875 -3.703125 Z M 2.640625 -1.015625 "/></g></g></g><g fill="#0062ff" fill-opacity="1"><g transform="translate(24.777603, 4.828877)"><g><path d="M 1.375 -2.5625 C 1.664062 -2.5625 1.894531 -2.46875 2.0625 -2.28125 C 2.238281 -2.101562 2.328125 -1.859375 2.328125 -1.546875 L 0.71875 -1.546875 C 0.726562 -1.328125 0.769531 -1.128906 0.84375 -0.953125 C 0.914062 -0.785156 1.007812 -0.65625 1.125 -0.5625 C 1.25 -0.46875 1.390625 -0.421875 1.546875 -0.421875 C 1.847656 -0.421875 2.082031 -0.582031 2.25 -0.90625 L 2.328125 -0.875 C 2.265625 -0.570312 2.140625 -0.335938 1.953125 -0.171875 C 1.773438 -0.00390625 1.554688 0.078125 1.296875 0.078125 C 1.085938 0.078125 0.898438 0.0234375 0.734375 -0.078125 C 0.578125 -0.191406 0.453125 -0.34375 0.359375 -0.53125 C 0.273438 -0.71875 0.234375 -0.9375 0.234375 -1.1875 C 0.234375 -1.445312 0.28125 -1.679688 0.375 -1.890625 C 0.476562 -2.097656 0.613281 -2.257812 0.78125 -2.375 C 0.957031 -2.5 1.15625 -2.5625 1.375 -2.5625 Z M 0.734375 -1.734375 L 1.71875 -1.734375 C 1.707031 -1.910156 1.660156 -2.054688 1.578125 -2.171875 C 1.503906 -2.285156 1.390625 -2.34375 1.234375 -2.34375 C 0.953125 -2.34375 0.785156 -2.140625 0.734375 -1.734375 Z M 0.734375 -1.734375 "/></g></g></g><g fill="#0062ff" fill-opacity="1"><g transform="translate(27.320699, 4.828877)"><g><path d="M 1.078125 -2.5625 L 1.078125 -2.0625 C 1.347656 -2.394531 1.625 -2.5625 1.90625 -2.5625 C 2.101562 -2.5625 2.257812 -2.488281 2.375 -2.34375 C 2.5 -2.195312 2.5625 -2 2.5625 -1.75 L 2.5625 -0.5 C 2.5625 -0.351562 2.585938 -0.25 2.640625 -0.1875 C 2.703125 -0.125 2.789062 -0.09375 2.90625 -0.09375 L 2.90625 0 L 1.625 0 L 1.625 -0.09375 C 1.707031 -0.101562 1.769531 -0.117188 1.8125 -0.140625 C 1.863281 -0.160156 1.898438 -0.203125 1.921875 -0.265625 C 1.953125 -0.335938 1.96875 -0.4375 1.96875 -0.5625 L 1.96875 -1.578125 C 1.96875 -1.816406 1.9375 -1.972656 1.875 -2.046875 C 1.820312 -2.117188 1.738281 -2.15625 1.625 -2.15625 C 1.53125 -2.15625 1.4375 -2.128906 1.34375 -2.078125 C 1.25 -2.023438 1.160156 -1.953125 1.078125 -1.859375 L 1.078125 -0.5625 C 1.078125 -0.375 1.101562 -0.25 1.15625 -0.1875 C 1.207031 -0.125 1.296875 -0.09375 1.421875 -0.09375 L 1.421875 0 L 0.140625 0 L 0.140625 -0.09375 C 0.265625 -0.09375 0.351562 -0.125 0.40625 -0.1875 C 0.46875 -0.25 0.5 -0.351562 0.5 -0.5 L 0.5 -1.78125 C 0.5 -1.945312 0.476562 -2.054688 0.4375 -2.109375 C 0.394531 -2.160156 0.335938 -2.1875 0.265625 -2.1875 C 0.234375 -2.1875 0.191406 -2.179688 0.140625 -2.171875 L 0.109375 -2.265625 L 0.96875 -2.5625 Z M 1.078125 -2.5625 "/></g></g></g><g fill="#0062ff" fill-opacity="1"><g transform="translate(30.313858, 4.828877)"><g><path d="M 0.921875 -3.34375 L 1.046875 -3.34375 L 1.046875 -2.484375 L 1.625 -2.484375 L 1.625 -2.28125 L 1.046875 -2.28125 L 1.046875 -0.703125 C 1.046875 -0.429688 1.128906 -0.296875 1.296875 -0.296875 C 1.410156 -0.296875 1.519531 -0.375 1.625 -0.53125 L 1.71875 -0.484375 C 1.644531 -0.316406 1.546875 -0.1875 1.421875 -0.09375 C 1.304688 0 1.171875 0.046875 1.015625 0.046875 C 0.816406 0.046875 0.671875 -0.00390625 0.578125 -0.109375 C 0.492188 -0.210938 0.453125 -0.378906 0.453125 -0.609375 L 0.453125 -2.28125 L 0.078125 -2.28125 L 0.078125 -2.40625 C 0.296875 -2.5 0.46875 -2.617188 0.59375 -2.765625 C 0.726562 -2.910156 0.835938 -3.101562 0.921875 -3.34375 Z M 0.921875 -3.34375 "/></g></g></g><g fill="#0062ff" fill-opacity="1"><g transform="translate(32.065286, 4.828877)"><g><path d="M 1.328125 -2.5625 C 1.597656 -2.5625 1.804688 -2.507812 1.953125 -2.40625 C 2.097656 -2.300781 2.171875 -2.113281 2.171875 -1.84375 L 2.171875 -0.5625 C 2.171875 -0.382812 2.226562 -0.296875 2.34375 -0.296875 C 2.375 -0.296875 2.40625 -0.304688 2.4375 -0.328125 C 2.46875 -0.359375 2.5 -0.382812 2.53125 -0.40625 C 2.5625 -0.4375 2.585938 -0.460938 2.609375 -0.484375 L 2.671875 -0.421875 C 2.566406 -0.253906 2.457031 -0.132812 2.34375 -0.0625 C 2.238281 0.0078125 2.125 0.046875 2 0.046875 C 1.863281 0.046875 1.765625 0.015625 1.703125 -0.046875 C 1.640625 -0.117188 1.601562 -0.226562 1.59375 -0.375 C 1.40625 -0.207031 1.253906 -0.09375 1.140625 -0.03125 C 1.023438 0.0195312 0.910156 0.046875 0.796875 0.046875 C 0.617188 0.046875 0.472656 -0.0078125 0.359375 -0.125 C 0.253906 -0.25 0.203125 -0.398438 0.203125 -0.578125 C 0.203125 -0.804688 0.316406 -1 0.546875 -1.15625 C 0.773438 -1.3125 1.125 -1.472656 1.59375 -1.640625 L 1.59375 -1.75 C 1.59375 -1.976562 1.566406 -2.140625 1.515625 -2.234375 C 1.460938 -2.335938 1.359375 -2.390625 1.203125 -2.390625 C 1.097656 -2.390625 1.007812 -2.359375 0.9375 -2.296875 C 0.875 -2.242188 0.84375 -2.164062 0.84375 -2.0625 L 0.84375 -1.890625 C 0.84375 -1.816406 0.816406 -1.753906 0.765625 -1.703125 C 0.710938 -1.660156 0.648438 -1.640625 0.578125 -1.640625 C 0.492188 -1.640625 0.425781 -1.664062 0.375 -1.71875 C 0.320312 -1.769531 0.296875 -1.835938 0.296875 -1.921875 C 0.296875 -2.035156 0.335938 -2.140625 0.421875 -2.234375 C 0.515625 -2.335938 0.640625 -2.414062 0.796875 -2.46875 C 0.953125 -2.53125 1.128906 -2.5625 1.328125 -2.5625 Z M 0.78125 -0.75 C 0.78125 -0.632812 0.8125 -0.535156 0.875 -0.453125 C 0.945312 -0.378906 1.035156 -0.34375 1.140625 -0.34375 C 1.222656 -0.34375 1.296875 -0.359375 1.359375 -0.390625 C 1.429688 -0.429688 1.507812 -0.488281 1.59375 -0.5625 L 1.59375 -1.453125 L 1.359375 -1.34375 C 1.140625 -1.238281 0.988281 -1.144531 0.90625 -1.0625 C 0.820312 -0.976562 0.78125 -0.875 0.78125 -0.75 Z M 0.78125 -0.75 "/></g></g></g><g clip-path="url(#27fb1ec8ec)"><g fill="#0062ff" fill-opacity="1"><g transform="translate(34.72225, 4.828877)"><g><path d="M 1.03125 -3.859375 L 1.03125 -0.5 C 1.03125 -0.351562 1.054688 -0.25 1.109375 -0.1875 C 1.160156 -0.125 1.25 -0.09375 1.375 -0.09375 L 1.375 0 L 0.09375 0 L 0.09375 -0.09375 C 0.21875 -0.09375 0.304688 -0.125 0.359375 -0.1875 C 0.410156 -0.25 0.4375 -0.351562 0.4375 -0.5 L 0.4375 -3.078125 C 0.4375 -3.222656 0.421875 -3.328125 0.390625 -3.390625 C 0.359375 -3.453125 0.304688 -3.484375 0.234375 -3.484375 C 0.210938 -3.484375 0.160156 -3.472656 0.078125 -3.453125 L 0.03125 -3.546875 L 0.921875 -3.859375 Z M 1.03125 -3.859375 "/></g></g></g></g><g fill="#0062ff" fill-opacity="1"><g transform="translate(36.191719, 4.828877)"><g/></g></g><g fill="#0062ff" fill-opacity="1"><g transform="translate(37.60154, 4.828877)"><g><path d="M 1.96875 -3.59375 C 1.75 -3.59375 1.601562 -3.5625 1.53125 -3.5 C 1.457031 -3.445312 1.421875 -3.34375 1.421875 -3.1875 L 1.421875 -2.015625 L 3.046875 -2.015625 L 3.046875 -3.1875 C 3.046875 -3.351562 3.003906 -3.460938 2.921875 -3.515625 C 2.847656 -3.566406 2.707031 -3.59375 2.5 -3.59375 L 2.5 -3.703125 L 4.28125 -3.703125 L 4.28125 -3.59375 C 4.132812 -3.59375 4.023438 -3.578125 3.953125 -3.546875 C 3.878906 -3.523438 3.828125 -3.484375 3.796875 -3.421875 C 3.765625 -3.367188 3.75 -3.289062 3.75 -3.1875 L 3.75 -0.5 C 3.75 -0.34375 3.785156 -0.238281 3.859375 -0.1875 C 3.929688 -0.132812 4.070312 -0.101562 4.28125 -0.09375 L 4.28125 0 L 2.5 0 L 2.5 -0.09375 C 2.707031 -0.101562 2.847656 -0.132812 2.921875 -0.1875 C 3.003906 -0.238281 3.046875 -0.34375 3.046875 -0.5 L 3.046875 -1.78125 L 1.421875 -1.78125 L 1.421875 -0.5 C 1.421875 -0.34375 1.457031 -0.238281 1.53125 -0.1875 C 1.601562 -0.132812 1.742188 -0.101562 1.953125 -0.09375 L 1.953125 0 L 0.171875 0 L 0.171875 -0.09375 C 0.378906 -0.101562 0.519531 -0.132812 0.59375 -0.1875 C 0.675781 -0.238281 0.71875 -0.34375 0.71875 -0.5 L 0.71875 -3.1875 C 0.71875 -3.351562 0.675781 -3.460938 0.59375 -3.515625 C 0.519531 -3.566406 0.378906 -3.59375 0.171875 -3.59375 L 0.171875 -3.703125 L 1.96875 -3.703125 Z M 1.96875 -3.59375 "/></g></g></g><g fill="#0062ff" fill-opacity="1"><g transform="translate(42.064161, 4.828877)"><g><path d="M 1.375 -2.5625 C 1.664062 -2.5625 1.894531 -2.46875 2.0625 -2.28125 C 2.238281 -2.101562 2.328125 -1.859375 2.328125 -1.546875 L 0.71875 -1.546875 C 0.726562 -1.328125 0.769531 -1.128906 0.84375 -0.953125 C 0.914062 -0.785156 1.007812 -0.65625 1.125 -0.5625 C 1.25 -0.46875 1.390625 -0.421875 1.546875 -0.421875 C 1.847656 -0.421875 2.082031 -0.582031 2.25 -0.90625 L 2.328125 -0.875 C 2.265625 -0.570312 2.140625 -0.335938 1.953125 -0.171875 C 1.773438 -0.00390625 1.554688 0.078125 1.296875 0.078125 C 1.085938 0.078125 0.898438 0.0234375 0.734375 -0.078125 C 0.578125 -0.191406 0.453125 -0.34375 0.359375 -0.53125 C 0.273438 -0.71875 0.234375 -0.9375 0.234375 -1.1875 C 0.234375 -1.445312 0.28125 -1.679688 0.375 -1.890625 C 0.476562 -2.097656 0.613281 -2.257812 0.78125 -2.375 C 0.957031 -2.5 1.15625 -2.5625 1.375 -2.5625 Z M 0.734375 -1.734375 L 1.71875 -1.734375 C 1.707031 -1.910156 1.660156 -2.054688 1.578125 -2.171875 C 1.503906 -2.285156 1.390625 -2.34375 1.234375 -2.34375 C 0.953125 -2.34375 0.785156 -2.140625 0.734375 -1.734375 Z M 0.734375 -1.734375 "/></g></g></g><g fill="#0062ff" fill-opacity="1"><g transform="translate(44.607257, 4.828877)"><g><path d="M 1.328125 -2.5625 C 1.597656 -2.5625 1.804688 -2.507812 1.953125 -2.40625 C 2.097656 -2.300781 2.171875 -2.113281 2.171875 -1.84375 L 2.171875 -0.5625 C 2.171875 -0.382812 2.226562 -0.296875 2.34375 -0.296875 C 2.375 -0.296875 2.40625 -0.304688 2.4375 -0.328125 C 2.46875 -0.359375 2.5 -0.382812 2.53125 -0.40625 C 2.5625 -0.4375 2.585938 -0.460938 2.609375 -0.484375 L 2.671875 -0.421875 C 2.566406 -0.253906 2.457031 -0.132812 2.34375 -0.0625 C 2.238281 0.0078125 2.125 0.046875 2 0.046875 C 1.863281 0.046875 1.765625 0.015625 1.703125 -0.046875 C 1.640625 -0.117188 1.601562 -0.226562 1.59375 -0.375 C 1.40625 -0.207031 1.253906 -0.09375 1.140625 -0.03125 C 1.023438 0.0195312 0.910156 0.046875 0.796875 0.046875 C 0.617188 0.046875 0.472656 -0.0078125 0.359375 -0.125 C 0.253906 -0.25 0.203125 -0.398438 0.203125 -0.578125 C 0.203125 -0.804688 0.316406 -1 0.546875 -1.15625 C 0.773438 -1.3125 1.125 -1.472656 1.59375 -1.640625 L 1.59375 -1.75 C 1.59375 -1.976562 1.566406 -2.140625 1.515625 -2.234375 C 1.460938 -2.335938 1.359375 -2.390625 1.203125 -2.390625 C 1.097656 -2.390625 1.007812 -2.359375 0.9375 -2.296875 C 0.875 -2.242188 0.84375 -2.164062 0.84375 -2.0625 L 0.84375 -1.890625 C 0.84375 -1.816406 0.816406 -1.753906 0.765625 -1.703125 C 0.710938 -1.660156 0.648438 -1.640625 0.578125 -1.640625 C 0.492188 -1.640625 0.425781 -1.664062 0.375 -1.71875 C 0.320312 -1.769531 0.296875 -1.835938 0.296875 -1.921875 C 0.296875 -2.035156 0.335938 -2.140625 0.421875 -2.234375 C 0.515625 -2.335938 0.640625 -2.414062 0.796875 -2.46875 C 0.953125 -2.53125 1.128906 -2.5625 1.328125 -2.5625 Z M 0.78125 -0.75 C 0.78125 -0.632812 0.8125 -0.535156 0.875 -0.453125 C 0.945312 -0.378906 1.035156 -0.34375 1.140625 -0.34375 C 1.222656 -0.34375 1.296875 -0.359375 1.359375 -0.390625 C 1.429688 -0.429688 1.507812 -0.488281 1.59375 -0.5625 L 1.59375 -1.453125 L 1.359375 -1.34375 C 1.140625 -1.238281 0.988281 -1.144531 0.90625 -1.0625 C 0.820312 -0.976562 0.78125 -0.875 0.78125 -0.75 Z M 0.78125 -0.75 "/></g></g></g><g clip-path="url(#6c170dde8f)"><g fill="#0062ff" fill-opacity="1"><g transform="translate(47.264222, 4.828877)"><g><path d="M 1.03125 -3.859375 L 1.03125 -0.5 C 1.03125 -0.351562 1.054688 -0.25 1.109375 -0.1875 C 1.160156 -0.125 1.25 -0.09375 1.375 -0.09375 L 1.375 0 L 0.09375 0 L 0.09375 -0.09375 C 0.21875 -0.09375 0.304688 -0.125 0.359375 -0.1875 C 0.410156 -0.25 0.4375 -0.351562 0.4375 -0.5 L 0.4375 -3.078125 C 0.4375 -3.222656 0.421875 -3.328125 0.390625 -3.390625 C 0.359375 -3.453125 0.304688 -3.484375 0.234375 -3.484375 C 0.210938 -3.484375 0.160156 -3.472656 0.078125 -3.453125 L 0.03125 -3.546875 L 0.921875 -3.859375 Z M 1.03125 -3.859375 "/></g></g></g></g><g fill="#0062ff" fill-opacity="1"><g transform="translate(48.73369, 4.828877)"><g><path d="M 0.921875 -3.34375 L 1.046875 -3.34375 L 1.046875 -2.484375 L 1.625 -2.484375 L 1.625 -2.28125 L 1.046875 -2.28125 L 1.046875 -0.703125 C 1.046875 -0.429688 1.128906 -0.296875 1.296875 -0.296875 C 1.410156 -0.296875 1.519531 -0.375 1.625 -0.53125 L 1.71875 -0.484375 C 1.644531 -0.316406 1.546875 -0.1875 1.421875 -0.09375 C 1.304688 0 1.171875 0.046875 1.015625 0.046875 C 0.816406 0.046875 0.671875 -0.00390625 0.578125 -0.109375 C 0.492188 -0.210938 0.453125 -0.378906 0.453125 -0.609375 L 0.453125 -2.28125 L 0.078125 -2.28125 L 0.078125 -2.40625 C 0.296875 -2.5 0.46875 -2.617188 0.59375 -2.765625 C 0.726562 -2.910156 0.835938 -3.101562 0.921875 -3.34375 Z M 0.921875 -3.34375 "/></g></g></g><g clip-path="url(#035228bf55)"><g fill="#0062ff" fill-opacity="1"><g transform="translate(50.485118, 4.828877)"><g><path d="M 1.078125 -3.859375 L 1.078125 -2.0625 C 1.191406 -2.207031 1.316406 -2.328125 1.453125 -2.421875 C 1.597656 -2.515625 1.75 -2.5625 1.90625 -2.5625 C 2.101562 -2.5625 2.257812 -2.488281 2.375 -2.34375 C 2.5 -2.195312 2.5625 -2 2.5625 -1.75 L 2.5625 -0.5 C 2.5625 -0.351562 2.585938 -0.25 2.640625 -0.1875 C 2.703125 -0.125 2.789062 -0.09375 2.90625 -0.09375 L 2.90625 0 L 1.625 0 L 1.625 -0.09375 C 1.707031 -0.101562 1.769531 -0.117188 1.8125 -0.140625 C 1.863281 -0.160156 1.898438 -0.203125 1.921875 -0.265625 C 1.953125 -0.335938 1.96875 -0.4375 1.96875 -0.5625 L 1.96875 -1.578125 C 1.96875 -1.816406 1.9375 -1.972656 1.875 -2.046875 C 1.820312 -2.117188 1.738281 -2.15625 1.625 -2.15625 C 1.53125 -2.15625 1.4375 -2.128906 1.34375 -2.078125 C 1.25 -2.023438 1.160156 -1.945312 1.078125 -1.84375 L 1.078125 -0.578125 C 1.078125 -0.378906 1.101562 -0.25 1.15625 -0.1875 C 1.207031 -0.125 1.296875 -0.09375 1.421875 -0.09375 L 1.421875 0 L 0.140625 0 L 0.140625 -0.09375 C 0.265625 -0.09375 0.351562 -0.125 0.40625 -0.1875 C 0.46875 -0.25 0.5 -0.351562 0.5 -0.5 L 0.5 -3.078125 C 0.5 -3.242188 0.476562 -3.351562 0.4375 -3.40625 C 0.394531 -3.457031 0.335938 -3.484375 0.265625 -3.484375 C 0.234375 -3.484375 0.191406 -3.476562 0.140625 -3.46875 L 0.109375 -3.5625 L 0.96875 -3.859375 Z M 1.078125 -3.859375 "/></g></g></g></g><g fill="#0062ff" fill-opacity="1"><g transform="translate(53.478277, 4.828877)"><g/></g></g><g fill="#0062ff" fill-opacity="1"><g transform="translate(54.888098, 4.828877)"><g><path d="M 1.421875 -3.78125 C 1.535156 -3.78125 1.632812 -3.769531 1.71875 -3.75 C 1.8125 -3.726562 1.910156 -3.695312 2.015625 -3.65625 C 2.128906 -3.613281 2.210938 -3.59375 2.265625 -3.59375 C 2.347656 -3.59375 2.414062 -3.65625 2.46875 -3.78125 L 2.5625 -3.78125 L 2.5625 -2.546875 L 2.46875 -2.546875 C 2.394531 -2.890625 2.269531 -3.140625 2.09375 -3.296875 C 1.914062 -3.460938 1.707031 -3.546875 1.46875 -3.546875 C 1.289062 -3.546875 1.144531 -3.5 1.03125 -3.40625 C 0.914062 -3.3125 0.859375 -3.191406 0.859375 -3.046875 C 0.859375 -2.898438 0.914062 -2.773438 1.03125 -2.671875 C 1.101562 -2.609375 1.195312 -2.535156 1.3125 -2.453125 C 1.4375 -2.378906 1.5625 -2.304688 1.6875 -2.234375 C 1.800781 -2.160156 1.921875 -2.082031 2.046875 -2 C 2.179688 -1.914062 2.296875 -1.835938 2.390625 -1.765625 C 2.492188 -1.679688 2.582031 -1.566406 2.65625 -1.421875 C 2.738281 -1.285156 2.78125 -1.128906 2.78125 -0.953125 C 2.78125 -0.765625 2.726562 -0.585938 2.625 -0.421875 C 2.519531 -0.265625 2.367188 -0.140625 2.171875 -0.046875 C 1.984375 0.0351562 1.773438 0.078125 1.546875 0.078125 C 1.421875 0.078125 1.304688 0.0664062 1.203125 0.046875 C 1.097656 0.0234375 0.988281 0 0.875 -0.03125 C 0.757812 -0.0703125 0.675781 -0.09375 0.625 -0.09375 C 0.539062 -0.09375 0.472656 -0.0351562 0.421875 0.078125 L 0.328125 0.078125 L 0.328125 -1.15625 L 0.421875 -1.15625 C 0.492188 -0.8125 0.617188 -0.554688 0.796875 -0.390625 C 0.984375 -0.222656 1.210938 -0.140625 1.484375 -0.140625 C 1.671875 -0.140625 1.828125 -0.191406 1.953125 -0.296875 C 2.085938 -0.398438 2.15625 -0.53125 2.15625 -0.6875 C 2.15625 -0.863281 2.097656 -1.007812 1.984375 -1.125 C 1.867188 -1.25 1.664062 -1.398438 1.375 -1.578125 C 1.050781 -1.773438 0.820312 -1.921875 0.6875 -2.015625 C 0.5625 -2.109375 0.460938 -2.210938 0.390625 -2.328125 C 0.328125 -2.441406 0.296875 -2.585938 0.296875 -2.765625 C 0.296875 -2.960938 0.34375 -3.140625 0.4375 -3.296875 C 0.539062 -3.453125 0.675781 -3.570312 0.84375 -3.65625 C 1.007812 -3.738281 1.203125 -3.78125 1.421875 -3.78125 Z M 1.421875 -3.78125 "/></g></g></g><g fill="#0062ff" fill-opacity="1"><g transform="translate(57.940897, 4.828877)"><g><path d="M 1 -0.890625 C 1 -0.660156 1.03125 -0.503906 1.09375 -0.421875 C 1.164062 -0.347656 1.25 -0.3125 1.34375 -0.3125 C 1.4375 -0.3125 1.519531 -0.332031 1.59375 -0.375 C 1.675781 -0.425781 1.773438 -0.507812 1.890625 -0.625 L 1.890625 -1.9375 C 1.890625 -2.113281 1.863281 -2.226562 1.8125 -2.28125 C 1.757812 -2.34375 1.671875 -2.378906 1.546875 -2.390625 L 1.546875 -2.484375 L 2.484375 -2.484375 L 2.484375 -0.71875 C 2.484375 -0.539062 2.503906 -0.425781 2.546875 -0.375 C 2.585938 -0.320312 2.644531 -0.296875 2.71875 -0.296875 C 2.738281 -0.296875 2.785156 -0.300781 2.859375 -0.3125 L 2.890625 -0.234375 L 1.890625 0.078125 L 1.890625 -0.421875 C 1.753906 -0.242188 1.617188 -0.113281 1.484375 -0.03125 C 1.347656 0.0390625 1.210938 0.078125 1.078125 0.078125 C 0.867188 0.078125 0.703125 0.015625 0.578125 -0.109375 C 0.460938 -0.242188 0.40625 -0.488281 0.40625 -0.84375 L 0.40625 -1.9375 C 0.40625 -2.09375 0.378906 -2.207031 0.328125 -2.28125 C 0.285156 -2.351562 0.191406 -2.390625 0.046875 -2.390625 L 0.046875 -2.484375 L 1 -2.484375 Z M 1 -0.890625 "/></g></g></g><g fill="#0062ff" fill-opacity="1"><g transform="translate(60.879827, 4.828877)"><g><path d="M 1 -2.5625 L 1 -2.03125 L 1.015625 -2.03125 C 1.234375 -2.382812 1.503906 -2.5625 1.828125 -2.5625 C 2.003906 -2.5625 2.160156 -2.507812 2.296875 -2.40625 C 2.441406 -2.300781 2.550781 -2.15625 2.625 -1.96875 C 2.707031 -1.789062 2.75 -1.582031 2.75 -1.34375 C 2.75 -1.082031 2.695312 -0.84375 2.59375 -0.625 C 2.488281 -0.414062 2.347656 -0.25 2.171875 -0.125 C 1.992188 0 1.796875 0.0625 1.578125 0.0625 C 1.460938 0.0625 1.359375 0.046875 1.265625 0.015625 C 1.179688 -0.015625 1.09375 -0.0664062 1 -0.140625 L 1 0.578125 C 1 0.710938 1.007812 0.8125 1.03125 0.875 C 1.0625 0.9375 1.109375 0.976562 1.171875 1 C 1.234375 1.03125 1.320312 1.046875 1.4375 1.046875 L 1.4375 1.140625 L 0 1.140625 L 0 1.046875 C 0.101562 1.046875 0.179688 1.03125 0.234375 1 C 0.296875 0.976562 0.335938 0.9375 0.359375 0.875 C 0.390625 0.8125 0.40625 0.710938 0.40625 0.578125 L 0.40625 -1.828125 C 0.40625 -1.953125 0.382812 -2.039062 0.34375 -2.09375 C 0.3125 -2.15625 0.253906 -2.1875 0.171875 -2.1875 C 0.140625 -2.1875 0.0976562 -2.179688 0.046875 -2.171875 L 0.015625 -2.265625 L 0.890625 -2.5625 Z M 1.5625 -0.125 C 1.738281 -0.125 1.878906 -0.210938 1.984375 -0.390625 C 2.097656 -0.566406 2.15625 -0.796875 2.15625 -1.078125 C 2.15625 -1.378906 2.09375 -1.625 1.96875 -1.8125 C 1.851562 -2.007812 1.691406 -2.109375 1.484375 -2.109375 C 1.390625 -2.109375 1.304688 -2.082031 1.234375 -2.03125 C 1.160156 -1.988281 1.082031 -1.914062 1 -1.8125 L 1 -0.640625 C 1 -0.492188 1.046875 -0.367188 1.140625 -0.265625 C 1.242188 -0.171875 1.382812 -0.125 1.5625 -0.125 Z M 1.5625 -0.125 "/></g></g></g><g fill="#0062ff" fill-opacity="1"><g transform="translate(63.872986, 4.828877)"><g><path d="M 1 -2.5625 L 1 -2.03125 L 1.015625 -2.03125 C 1.234375 -2.382812 1.503906 -2.5625 1.828125 -2.5625 C 2.003906 -2.5625 2.160156 -2.507812 2.296875 -2.40625 C 2.441406 -2.300781 2.550781 -2.15625 2.625 -1.96875 C 2.707031 -1.789062 2.75 -1.582031 2.75 -1.34375 C 2.75 -1.082031 2.695312 -0.84375 2.59375 -0.625 C 2.488281 -0.414062 2.347656 -0.25 2.171875 -0.125 C 1.992188 0 1.796875 0.0625 1.578125 0.0625 C 1.460938 0.0625 1.359375 0.046875 1.265625 0.015625 C 1.179688 -0.015625 1.09375 -0.0664062 1 -0.140625 L 1 0.578125 C 1 0.710938 1.007812 0.8125 1.03125 0.875 C 1.0625 0.9375 1.109375 0.976562 1.171875 1 C 1.234375 1.03125 1.320312 1.046875 1.4375 1.046875 L 1.4375 1.140625 L 0 1.140625 L 0 1.046875 C 0.101562 1.046875 0.179688 1.03125 0.234375 1 C 0.296875 0.976562 0.335938 0.9375 0.359375 0.875 C 0.390625 0.8125 0.40625 0.710938 0.40625 0.578125 L 0.40625 -1.828125 C 0.40625 -1.953125 0.382812 -2.039062 0.34375 -2.09375 C 0.3125 -2.15625 0.253906 -2.1875 0.171875 -2.1875 C 0.140625 -2.1875 0.0976562 -2.179688 0.046875 -2.171875 L 0.015625 -2.265625 L 0.890625 -2.5625 Z M 1.5625 -0.125 C 1.738281 -0.125 1.878906 -0.210938 1.984375 -0.390625 C 2.097656 -0.566406 2.15625 -0.796875 2.15625 -1.078125 C 2.15625 -1.378906 2.09375 -1.625 1.96875 -1.8125 C 1.851562 -2.007812 1.691406 -2.109375 1.484375 -2.109375 C 1.390625 -2.109375 1.304688 -2.082031 1.234375 -2.03125 C 1.160156 -1.988281 1.082031 -1.914062 1 -1.8125 L 1 -0.640625 C 1 -0.492188 1.046875 -0.367188 1.140625 -0.265625 C 1.242188 -0.171875 1.382812 -0.125 1.5625 -0.125 Z M 1.5625 -0.125 "/></g></g></g><g fill="#0062ff" fill-opacity="1"><g transform="translate(66.866145, 4.828877)"><g><path d="M 1.546875 -2.5625 C 1.753906 -2.5625 1.953125 -2.503906 2.140625 -2.390625 C 2.335938 -2.285156 2.488281 -2.132812 2.59375 -1.9375 C 2.707031 -1.738281 2.765625 -1.515625 2.765625 -1.265625 C 2.765625 -1.015625 2.703125 -0.785156 2.578125 -0.578125 C 2.460938 -0.378906 2.304688 -0.21875 2.109375 -0.09375 C 1.910156 0.0195312 1.6875 0.078125 1.4375 0.078125 C 1.207031 0.078125 1 0.0195312 0.8125 -0.09375 C 0.625 -0.207031 0.476562 -0.363281 0.375 -0.5625 C 0.269531 -0.769531 0.21875 -0.988281 0.21875 -1.21875 C 0.21875 -1.46875 0.273438 -1.691406 0.390625 -1.890625 C 0.515625 -2.097656 0.675781 -2.257812 0.875 -2.375 C 1.082031 -2.5 1.304688 -2.5625 1.546875 -2.5625 Z M 0.875 -1.484375 C 0.875 -1.066406 0.929688 -0.734375 1.046875 -0.484375 C 1.171875 -0.242188 1.34375 -0.125 1.5625 -0.125 C 1.738281 -0.125 1.875 -0.203125 1.96875 -0.359375 C 2.0625 -0.515625 2.109375 -0.738281 2.109375 -1.03125 C 2.109375 -1.40625 2.050781 -1.722656 1.9375 -1.984375 C 1.832031 -2.242188 1.664062 -2.375 1.4375 -2.375 C 1.238281 -2.375 1.09375 -2.285156 1 -2.109375 C 0.914062 -1.941406 0.875 -1.734375 0.875 -1.484375 Z M 0.875 -1.484375 "/></g></g></g><g fill="#0062ff" fill-opacity="1"><g transform="translate(69.859303, 4.828877)"><g><path d="M 1.078125 -1.96875 C 1.191406 -2.175781 1.296875 -2.328125 1.390625 -2.421875 C 1.492188 -2.515625 1.609375 -2.5625 1.734375 -2.5625 C 1.828125 -2.5625 1.90625 -2.53125 1.96875 -2.46875 C 2.03125 -2.40625 2.0625 -2.332031 2.0625 -2.25 C 2.0625 -2.164062 2.035156 -2.097656 1.984375 -2.046875 C 1.929688 -1.992188 1.875 -1.96875 1.8125 -1.96875 C 1.757812 -1.96875 1.707031 -1.972656 1.65625 -1.984375 C 1.613281 -2.003906 1.566406 -2.03125 1.515625 -2.0625 C 1.472656 -2.101562 1.441406 -2.125 1.421875 -2.125 C 1.359375 -2.125 1.300781 -2.09375 1.25 -2.03125 C 1.195312 -1.96875 1.140625 -1.878906 1.078125 -1.765625 L 1.078125 -0.5 C 1.078125 -0.351562 1.101562 -0.25 1.15625 -0.1875 C 1.207031 -0.125 1.296875 -0.09375 1.421875 -0.09375 L 1.421875 0 L 0.140625 0 L 0.140625 -0.09375 C 0.265625 -0.09375 0.351562 -0.125 0.40625 -0.1875 C 0.46875 -0.25 0.5 -0.351562 0.5 -0.5 L 0.5 -1.875 C 0.5 -2.007812 0.484375 -2.097656 0.453125 -2.140625 C 0.421875 -2.179688 0.378906 -2.203125 0.328125 -2.203125 C 0.285156 -2.203125 0.21875 -2.1875 0.125 -2.15625 L 0.09375 -2.25 L 0.953125 -2.5625 L 1.078125 -2.5625 Z M 1.078125 -1.96875 "/></g></g></g><g fill="#0062ff" fill-opacity="1"><g transform="translate(72.093323, 4.828877)"><g><path d="M 0.921875 -3.34375 L 1.046875 -3.34375 L 1.046875 -2.484375 L 1.625 -2.484375 L 1.625 -2.28125 L 1.046875 -2.28125 L 1.046875 -0.703125 C 1.046875 -0.429688 1.128906 -0.296875 1.296875 -0.296875 C 1.410156 -0.296875 1.519531 -0.375 1.625 -0.53125 L 1.71875 -0.484375 C 1.644531 -0.316406 1.546875 -0.1875 1.421875 -0.09375 C 1.304688 0 1.171875 0.046875 1.015625 0.046875 C 0.816406 0.046875 0.671875 -0.00390625 0.578125 -0.109375 C 0.492188 -0.210938 0.453125 -0.378906 0.453125 -0.609375 L 0.453125 -2.28125 L 0.078125 -2.28125 L 0.078125 -2.40625 C 0.296875 -2.5 0.46875 -2.617188 0.59375 -2.765625 C 0.726562 -2.910156 0.835938 -3.101562 0.921875 -3.34375 Z M 0.921875 -3.34375 "/></g></g></g></g></g></svg>