<svg xmlns="http://www.w3.org/2000/svg" xmlns:xlink="http://www.w3.org/1999/xlink" width="400" height="400" viewBox="0 0 400 400">
<g data-name="icon" fill="#393E46" data="id:8104052" transform="translate(103.53159636475382,78.93146505929525) scale(1.9293735190870802)">
    
 <path d="m50 71.875c1.0312 0 1.9844-0.40625 2.7031-1.1406l17-17.281c2.4062-2.4531 3.7344-5.7188 3.7344-9.1875s-1.3281-6.7344-3.7344-9.2031c-2.4219-2.4531-5.6562-3.8125-9.0781-3.8125s-6.6562 1.3594-9.0781 3.8125l-1.5469 1.5781-1.5312-1.5781c-2.4219-2.4531-5.6406-3.8125-9.0625-3.8125h-0.046875c-3.4219 0-6.625 1.3594-9.0469 3.8125-4.9844 5.0781-4.9844 13.328 0 18.391l16.984 17.281c0.71875 0.73438 1.6875 1.1406 2.7031 1.1406z"></path>
 <path d="m92.188 3.125h-6.25c-2.4688 0-4.4844 1.9219-4.6562 4.3438l-19.469-3.8906c-1.5156-0.29688-3.0625-0.45312-4.6094-0.45312h-4.1875c-3.25 0-6.4219 0.65625-9.3906 1.9688l-18.219 7.9688c-2.1406 0.9375-3.5312 3.0469-3.5312 5.3906 0 1.9844 0.98438 3.8281 2.6406 4.9062 1.6562 1.0938 3.7344 1.2812 5.5469 0.5l10.562-4.5312v0.20312c0 3.0156 2.4531 5.4688 5.4688 5.4688h11.297l6.5156 3.7188c2.8906 1.6562 6.1875 2.5312 9.5312 2.5312 3.0156 0 5.9844-0.59375 7.8594-1.0781 0.25 2.3594 2.2188 4.2031 4.6406 4.2031h6.25c2.5781 0 4.6875-2.1094 4.6875-4.6875v-21.875c0-2.5781-2.1094-4.6875-4.6875-4.6875zm-10.938 23.828c-1.5938 0.4375-4.7344 1.1719-7.8125 1.1719-2.7969 0-5.5469-0.73438-7.9844-2.125l-6.8594-3.9219c-0.25-0.125-0.51562-0.20312-0.78125-0.20312h-11.719c-1.2969 0-2.3438-1.0469-2.3438-2.3438 0-0.89062 0.5-1.6719 1.25-2.0781l0.35938-0.14062c0.23438-0.078125 0.46875-0.125 0.73438-0.125h14.844c0.85938 0 1.5625-0.70312 1.5625-1.5625s-0.70312-1.5625-1.5625-1.5625h-14.844c-0.46875 0-0.9375 0.0625-1.375 0.17188v-0.046875l-0.5 0.20312c-0.1875 0.0625-0.35938 0.14062-0.54688 0.23438l-14.828 6.3594c-0.875 0.375-1.8125 0.28125-2.6094-0.23438-0.78125-0.51562-1.2344-1.3594-1.2344-2.2969 0-1.0938 0.65625-2.0938 1.6562-2.5312l18.219-7.9688c2.5781-1.125 5.3125-1.7031 8.1406-1.7031h4.1875c1.3438 0 2.6719 0.125 3.9844 0.39062l20.062 4.0156z"></path>
 <path d="m75.484 76.641c-1.6562-1.0938-3.7344-1.2812-5.5469-0.5l-10.562 4.5312v-0.20312c0-3.0156-2.4531-5.4688-5.4688-5.4688h-11.297l-6.5156-3.7188c-2.8906-1.6562-6.1875-2.5312-9.5312-2.5312-3.0156 0-5.9844 0.59375-7.8594 1.0781-0.25-2.3594-2.2188-4.2031-4.6406-4.2031h-6.25c-2.5781 0-4.6875 2.1094-4.6875 4.6875v21.875c0 2.5781 2.1094 4.6875 4.6875 4.6875h6.25c2.4688 0 4.4844-1.9219 4.6562-4.3438l19.469 3.8906c1.5156 0.29688 3.0625 0.45312 4.6094 0.45312h4.1875c3.25 0 6.4219-0.65625 9.3906-1.9688l18.234-7.9688c2.1406-0.9375 3.5156-3.0469 3.5156-5.3906 0-1.9844-0.98438-3.8125-2.6406-4.9062zm-2.1406 7.4375-18.219 7.9688c-2.5781 1.125-5.3125 1.7031-8.1406 1.7031h-4.1875c-1.3438 0-2.6719-0.125-3.9844-0.39062l-20.062-4.0156v-16.297c1.5938-0.4375 4.7344-1.1719 7.8125-1.1719 2.7969 0 5.5469 0.73438 7.9844 2.125l6.8594 3.9219c0.25 0.125 0.51562 0.20312 0.78125 0.20312h11.719c1.2969 0 2.3438 1.0469 2.3438 2.3438 0 0.89062-0.5 1.6719-1.25 2.0781l-0.35938 0.14062c-0.23438 0.078125-0.46875 0.125-0.73438 0.125h-14.844c-0.85938 0-1.5625 0.70312-1.5625 1.5625s0.70312 1.5625 1.5625 1.5625h14.844c0.46875 0 0.9375-0.0625 1.375-0.17188v0.046875l0.5-0.20312c0.1875-0.0625 0.35938-0.14062 0.54688-0.23438l14.828-6.3594c0.875-0.375 1.8125-0.28125 2.6094 0.23438 0.78125 0.51562 1.2344 1.3594 1.2344 2.2969 0 1.0938-0.65625 2.0938-1.6562 2.5312z"></path>

    <rect x="0.12500381469726562" y="0.125" width="99.74971008300781" height="99.75027465820312" fill="transparent" pointer-events="all"></rect></g><g data-name="business_name" fill="#393E46" data="id:310" transform="translate(60.8161573696204,271.28690788988513) scale(0.7741035819058034)"><path d="M14.24,19.8l2.64,0l4,10.08l4.04-10.08l2.68,0l-4.96,12.12l5.44,12.84l10.28-25.16l3.04,0l-12.04,28.4l-2.48,0l-5.96-14.04l-6,14.04l-2.44,0l-12-28.4l3,0l10.32,25.16l5.4-12.84z M43.16,42q0-1.96,1.12-3.38t3.1-2.2t4.58-0.78q1.52,0,3.16,0.24t2.92,0.72l0-1.76q0-2.64-1.56-4.2t-4.32-1.56q-1.68,0-3.3,0.62t-3.38,1.82l-1.04-1.92q2.04-1.4,4-2.1t4-0.7q3.84,0,6.08,2.2t2.24,6.08l0,9.64q0,0.56,0.24,0.82t0.76,0.3l0,2.16q-0.44,0.04-0.76,0.08t-0.48,0q-1-0.04-1.52-0.64t-0.56-1.28l-0.04-1.52q-1.4,1.8-3.64,2.78t-4.56,0.98q-2,0-3.62-0.86t-2.52-2.32t-0.9-3.22z M57.12,43.6q0.44-0.56,0.68-1.08t0.24-0.92l0-3.04q-1.36-0.52-2.82-0.8t-2.94-0.28q-2.92,0-4.72,1.16t-1.8,3.16q0,1.16,0.6,2.18t1.76,1.68t2.72,0.66q1.96,0,3.66-0.76t2.62-1.96z M66.64,48l0-20.84l2.72,0l0,20.84l-2.72,0z M66.64,22.8l0-4l2.72,0l0,4l-2.72,0z M85.36,47q-0.32,0.12-1,0.44t-1.64,0.56t-2.08,0.24q-1.16,0-2.18-0.44t-1.62-1.34t-0.6-2.22l0-14.92l-2.88,0l0-2.16l2.88,0l0-7.04l2.72,0l0,7.04l4.8,0l0,2.16l-4.8,0l0,14.16q0.08,1.12,0.82,1.68t1.7,0.56q1.12,0,2.04-0.38t1.12-0.54z M88.88,18.8l2.72,0l0,24.48q0,1.56,0.56,2.04t1.36,0.48q0.72,0,1.44-0.16t1.24-0.32l0.48,2.2q-0.76,0.32-1.86,0.52t-1.9,0.2q-1.84,0-2.94-1.08t-1.1-2.96l0-25.4z M99.64,48l0-20.84l2.72,0l0,20.84l-2.72,0z M99.64,22.8l0-4l2.72,0l0,4l-2.72,0z M115.2,48.4q-2.56,0-4.76-0.84t-3.8-2.56l1.12-1.92q1.76,1.64,3.54,2.38t3.78,0.74q2.44,0,3.96-0.98t1.52-2.82q0-1.24-0.74-1.9t-2.12-1.08t-3.3-0.9q-2.16-0.6-3.62-1.26t-2.2-1.68t-0.74-2.66q0-2.04,1.02-3.38t2.8-2.04t3.98-0.7q2.4,0,4.24,0.76t3,2.12l-1.32,1.84q-1.12-1.28-2.66-1.9t-3.42-0.62q-1.28,0-2.44,0.34t-1.9,1.12t-0.74,2.14q0,1.12,0.56,1.74t1.68,1.04t2.76,0.9q2.36,0.64,4.12,1.3t2.72,1.7t0.96,2.92q0,2.92-2.2,4.56t-5.8,1.64z M137.68,47q-0.32,0.12-1,0.44t-1.64,0.56t-2.08,0.24q-1.16,0-2.18-0.44t-1.62-1.34t-0.6-2.22l0-14.92l-2.88,0l0-2.16l2.88,0l0-7.04l2.72,0l0,7.04l4.8,0l0,2.16l-4.8,0l0,14.16q0.08,1.12,0.82,1.68t1.7,0.56q1.12,0,2.04-0.38t1.12-0.54z  M149.96,33.6q0-2.6,0.9-5.1t2.62-4.56t4.24-3.28t5.72-1.22q3.8,0,6.5,1.74t3.98,4.46l-2.2,1.36q-0.92-1.88-2.32-2.98t-2.98-1.58t-3.14-0.48q-2.56,0-4.52,1.02t-3.3,2.72t-2.02,3.8t-0.68,4.26q0,2.36,0.8,4.52t2.24,3.82t3.38,2.64t4.22,0.98q1.6,0,3.28-0.56t3.14-1.72t2.34-3l2.32,1.2q-0.88,2.12-2.72,3.6t-4.1,2.24t-4.42,0.76q-2.92,0-5.36-1.26t-4.22-3.36t-2.74-4.72t-0.96-5.3z M187.6,48.4q-2.24,0-4.14-0.86t-3.28-2.36t-2.14-3.44t-0.76-4.1q0-2.24,0.76-4.18t2.16-3.44t3.3-2.36t4.14-0.86t4.12,0.86t3.28,2.36t2.16,3.44t0.76,4.18q0,2.16-0.76,4.1t-2.14,3.44t-3.28,2.36t-4.18,0.86z M180.04,37.68q0,2.32,1.02,4.22t2.74,3t3.8,1.1t3.8-1.12t2.76-3.06t1.04-4.22q0-2.32-1.04-4.24t-2.76-3.04t-3.8-1.12t-3.78,1.16t-2.74,3.06t-1.04,4.26z M233.52,48l-2.72,0l0-11.64q0-3.64-1.16-5.36t-3.44-1.72q-2.36,0-4.22,1.68t-2.62,4.32l0,12.72l-2.72,0l0-11.64q0-3.68-1.12-5.38t-3.44-1.7t-4.2,1.64t-2.64,4.32l0,12.76l-2.72,0l0-20.84l2.48,0l0,4.72q1.32-2.44,3.38-3.76t4.58-1.32q2.6,0,4.2,1.48t1.96,3.88q1.44-2.64,3.46-4t4.58-1.36q1.76,0,2.98,0.64t1.96,1.82t1.08,2.84t0.34,3.7l0,12.2z  M249.92,48.4q-2.6,0-4.66-1.36t-3.26-3.36l0,12.84l-2.72,0l0-29.36l2.44,0l0,4.04q1.24-1.96,3.32-3.18t4.44-1.22q2.16,0,3.96,0.9t3.12,2.42t2.06,3.46t0.74,4.02q0,2.92-1.18,5.38t-3.3,3.94t-4.96,1.48z M249.16,46q1.72,0,3.08-0.7t2.34-1.9t1.5-2.7t0.52-3.1q0-1.68-0.58-3.2t-1.66-2.68t-2.48-1.84t-3.04-0.68q-1.04,0-2.16,0.4t-2.14,1.14t-1.7,1.66t-0.84,1.96l0,6.4q0.64,1.48,1.72,2.66t2.5,1.88t2.94,0.7z M262.28,42q0-1.96,1.12-3.38t3.1-2.2t4.58-0.78q1.52,0,3.16,0.24t2.92,0.72l0-1.76q0-2.64-1.56-4.2t-4.32-1.56q-1.68,0-3.3,0.62t-3.38,1.82l-1.04-1.92q2.04-1.4,4-2.1t4-0.7q3.84,0,6.08,2.2t2.24,6.08l0,9.64q0,0.56,0.24,0.82t0.76,0.3l0,2.16q-0.44,0.04-0.76,0.08t-0.48,0q-1-0.04-1.52-0.64t-0.56-1.28l-0.04-1.52q-1.4,1.8-3.64,2.78t-4.56,0.98q-2,0-3.62-0.86t-2.52-2.32t-0.9-3.22z M276.24,43.6q0.44-0.56,0.68-1.08t0.24-0.92l0-3.04q-1.36-0.52-2.82-0.8t-2.94-0.28q-2.92,0-4.72,1.16t-1.8,3.16q0,1.16,0.6,2.18t1.76,1.68t2.72,0.66q1.96,0,3.66-0.76t2.62-1.96z M303.28,48l-2.72,0l0-11.64q0-3.68-1.08-5.38t-3.4-1.7q-1.6,0-3.16,0.78t-2.74,2.12t-1.7,3.06l0,12.76l-2.72,0l0-20.84l2.48,0l0,4.72q0.84-1.52,2.2-2.66t3.08-1.78t3.56-0.64q1.72,0,2.92,0.64t1.92,1.82t1.04,2.84t0.32,3.7l0,12.2z M309.08,48l0-20.84l2.72,0l0,20.84l-2.72,0z M309.08,22.8l0-4l2.72,0l0,4l-2.72,0z M326.68,48.4q-2.24,0-4.14-0.86t-3.28-2.36t-2.14-3.44t-0.76-4.1q0-2.24,0.76-4.18t2.16-3.44t3.3-2.36t4.14-0.86t4.12,0.86t3.28,2.36t2.16,3.44t0.76,4.18q0,2.16-0.76,4.1t-2.14,3.44t-3.28,2.36t-4.18,0.86z M319.12,37.68q0,2.32,1.02,4.22t2.74,3t3.8,1.1t3.8-1.12t2.76-3.06t1.04-4.22q0-2.32-1.04-4.24t-2.76-3.04t-3.8-1.12t-3.78,1.16t-2.74,3.06t-1.04,4.26z M359.12,48l-2.72,0l0-11.64q0-3.68-1.08-5.38t-3.4-1.7q-1.6,0-3.16,0.78t-2.74,2.12t-1.7,3.06l0,12.76l-2.72,0l0-20.84l2.48,0l0,4.72q0.84-1.52,2.2-2.66t3.08-1.78t3.56-0.64q1.72,0,2.92,0.64t1.92,1.82t1.04,2.84t0.32,3.7l0,12.2z"></path><rect x="-2.519998550415039" y="15.799999237060547" width="364.6400451660156" height="43.720001220703125" fill="transparent" pointer-events="all"></rect></g></svg>